<svg xmlns="http://www.w3.org/2000/svg" width="120" height="121"><path id="Shape_1" d="M391.989 1011.99c-.375 0-.748 0-1.121-.01a.582.582 0 01-.576-.6.592.592 0 01.6-.58c1.348.03 2.718 0 4.067-.06a.577.577 0 01.615.56.6.6 0 01-.557.62c-1.004.05-2.017.07-3.028.07zm-5.21-.22a.094.094 0 01-.051-.01 63.135 63.135 0 01-4.116-.5.592.592 0 01.182-1.17c1.333.21 2.691.38 4.036.5a.582.582 0 01.533.64.594.594 0 01-.584.54zm12.3-.2a.588.588 0 01-.583-.52.6.6 0 01.514-.66c1.343-.16 2.694-.37 4.018-.62a.59.59 0 01.219 1.16c-1.35.26-2.729.47-4.1.64h-.069zm-20.406-1.09a.583.583 0 01-.131-.01 55.33 55.33 0 01-4.008-1.08.59.59 0 01.341-1.13c1.29.4 2.612.75 3.929 1.06a.588.588 0 01-.133 1.16zm28.468-.45a.592.592 0 01-.566-.44.585.585 0 01.418-.72c1.3-.35 2.614-.75 3.893-1.18a.581.581 0 01.745.37.6.6 0 01-.368.75c-1.305.44-2.641.85-3.972 1.2a.772.772 0 01-.152.02zm-36.328-1.95a.514.514 0 01-.209-.04 59.268 59.268 0 01-3.826-1.63.591.591 0 01-.286-.78.581.581 0 01.78-.29c1.227.57 2.488 1.11 3.75 1.59a.6.6 0 01-.211 1.15zm44.1-.7a.594.594 0 01-.227-1.14c1.243-.53 2.484-1.1 3.69-1.71a.581.581 0 01.788.26.587.587 0 01-.26.79c-1.231.63-2.5 1.21-3.765 1.75a.611.611 0 01-.231.05zm-51.552-2.79a.575.575 0 01-.282-.07 62.106 62.106 0 01-3.564-2.14.6.6 0 01-.175-.82.579.579 0 01.812-.18 54.93 54.93 0 003.493 2.1.6.6 0 01.231.81.592.592 0 01-.52.3zm58.88-.93a.577.577 0 01-.5-.29.6.6 0 01.2-.81 54.46 54.46 0 003.423-2.21.593.593 0 01.667.98 61.68 61.68 0 01-3.491 2.25.543.543 0 01-.304.08zm-65.782-3.55a.573.573 0 01-.351-.121 60.428 60.428 0 01-3.236-2.618.594.594 0 01-.062-.834.582.582 0 01.827-.062 59.84 59.84 0 003.173 2.566.595.595 0 01-.356 1.069zm72.535-1.143a.58.58 0 01-.459-.223.6.6 0 01.093-.832 59.242 59.242 0 003.091-2.663.585.585 0 01.83.037.594.594 0 01-.037.836 60.306 60.306 0 01-3.153 2.716.586.586 0 01-.37.129zm-78.76-4.259a.581.581 0 01-.412-.171c-.98-.976-1.939-2-2.849-3.038a.6.6 0 01.052-.836.585.585 0 01.829.053 60.397 60.397 0 002.793 2.979.6.6 0 010 .837.584.584 0 01-.418.176zm84.814-1.33a.581.581 0 01-.405-.163.6.6 0 01-.021-.837 57.825 57.825 0 002.7-3.066.585.585 0 01.826-.078.6.6 0 01.077.834 61.476 61.476 0 01-2.754 3.127.584.584 0 01-.428.183zM344.8 988.5a.586.586 0 01-.467-.232 63.665 63.665 0 01-2.407-3.4.6.6 0 01.165-.821.584.584 0 01.813.166 60.314 60.314 0 002.361 3.337.593.593 0 01-.109.829.576.576 0 01-.356.121zm95.48-1.5a.585.585 0 01-.341-.111.6.6 0 01-.135-.826 59.871 59.871 0 002.258-3.412.584.584 0 01.809-.192.6.6 0 01.19.815 65.322 65.322 0 01-2.3 3.479.586.586 0 01-.481.247zm-100.01-5.4a.583.583 0 01-.511-.3 61.086 61.086 0 01-1.919-3.7.6.6 0 01.275-.79.584.584 0 01.783.278 60.513 60.513 0 001.882 3.631.593.593 0 01-.221.806.582.582 0 01-.289.082zm104.33-1.639a.58.58 0 01-.272-.068.594.594 0 01-.246-.8 60.338 60.338 0 001.77-3.694.587.587 0 01.774-.3.6.6 0 01.3.781 60.486 60.486 0 01-1.806 3.769.588.588 0 01-.52.312zm-107.875-5.808a.589.589 0 01-.546-.374 61.046 61.046 0 01-1.393-3.938.594.594 0 01.381-.744.588.588 0 01.738.384c.41 1.3.869 2.6 1.366 3.861a.593.593 0 01-.33.768.57.57 0 01-.215.043zm111.19-1.772a.577.577 0 01-.2-.036.592.592 0 01-.353-.757c.456-1.277.874-2.59 1.243-3.9a.586.586 0 01.724-.408.592.592 0 01.4.73c-.375 1.34-.8 2.679-1.268 3.982a.588.588 0 01-.545.389zm-113.677-6.115a.586.586 0 01-.57-.452 60.45 60.45 0 01-.838-4.094.592.592 0 01.48-.683.586.586 0 01.677.484c.228 1.345.5 2.7.821 4.014a.592.592 0 01-.431.715.56.56 0 01-.138.016zm115.914-1.848a.621.621 0 01-.121-.012.592.592 0 01-.454-.7c.276-1.333.509-2.691.694-4.038a.583.583 0 01.661-.506.591.591 0 01.5.668 60.641 60.641 0 01-.708 4.118.587.587 0 01-.571.47zm-117.292-6.309a.589.589 0 01-.584-.532 61.307 61.307 0 01-.27-4.172.587.587 0 111.173-.036c.042 1.359.131 2.735.265 4.09a.591.591 0 01-.525.648c-.019.002-.039.002-.058.002zm118.413-1.888h-.041a.592.592 0 01-.546-.631 60.76 60.76 0 00.023-7.851.59.59 0 01.549-.627.581.581 0 01.622.554 61.755 61.755 0 01-.022 8.001.588.588 0 01-.584.554zm-118.667-6.382h-.023a.588.588 0 01-.564-.613c.051-1.39.149-2.793.294-4.169a.587.587 0 111.167.124 61.68 61.68 0 00-.289 4.089.588.588 0 01-.584.569zm118.294-5.662a.589.589 0 01-.581-.514c-.177-1.35-.4-2.71-.671-4.043a.592.592 0 01.458-.7.586.586 0 01.692.462c.275 1.36.5 2.747.684 4.124a.59.59 0 01-.5.664.678.678 0 01-.082.007zm-117.43-2.567a.583.583 0 01-.578-.694c.239-1.368.529-2.743.861-4.09a.583.583 0 01.711-.43.592.592 0 01.429.717 59.19 59.19 0 00-.845 4.009.588.588 0 01-.578.488zm115.794-5.541a.588.588 0 01-.565-.434 58.9 58.9 0 00-1.22-3.91.6.6 0 01.358-.756.587.587 0 01.749.361c.46 1.312.878 2.654 1.245 3.989a.593.593 0 01-.41.728.607.607 0 01-.157.022zm-113.81-2.487a.568.568 0 01-.181-.03.592.592 0 01-.378-.745c.425-1.319.9-2.643 1.418-3.935a.586.586 0 01.764-.328.594.594 0 01.325.77 59.978 59.978 0 00-1.39 3.858.588.588 0 01-.558.41zm111.08-5.31a.59.59 0 01-.54-.357 59.478 59.478 0 00-1.743-3.7.594.594 0 01.251-.8.585.585 0 01.791.253 59.7 59.7 0 011.779 3.773.594.594 0 01-.306.778.579.579 0 01-.232.053zM338.527 925.9a.584.584 0 01-.256-.059.594.594 0 01-.271-.791 60.328 60.328 0 011.944-3.7.586.586 0 01.8-.218.594.594 0 01.216.808 59.549 59.549 0 00-1.907 3.625.584.584 0 01-.526.335zm104.231-4.964a.589.589 0 01-.5-.284 59.24 59.24 0 00-2.235-3.423.6.6 0 01.139-.825.583.583 0 01.818.141 59.153 59.153 0 012.28 3.49.6.6 0 01-.2.814.583.583 0 01-.302.084zm-100.133-2.216a.578.578 0 01-.326-.1.594.594 0 01-.16-.821 60.702 60.702 0 012.43-3.39.583.583 0 01.824-.1.6.6 0 01.1.83 59.08 59.08 0 00-2.384 3.323.587.587 0 01-.484.258zm95.388-4.536a.586.586 0 01-.455-.217 60.741 60.741 0 00-2.68-3.083.594.594 0 01.025-.836.585.585 0 01.83.026 61.3 61.3 0 012.734 3.144.593.593 0 01-.083.832.58.58 0 01-.371.134zm-90.35-2a.578.578 0 01-.391-.151.594.594 0 01-.047-.835 60.527 60.527 0 012.868-3.02.584.584 0 01.83.01.6.6 0 01-.01.836 59.957 59.957 0 00-2.812 2.962.586.586 0 01-.438.196zm84.729-4.029a.585.585 0 01-.4-.158 59.124 59.124 0 00-3.076-2.684.6.6 0 01-.088-.832.584.584 0 01.825-.089c1.07.87 2.126 1.791 3.137 2.737a.6.6 0 01.031.836.583.583 0 01-.429.188zm-78.851-1.755a.583.583 0 01-.448-.209.594.594 0 01.067-.833c1.05-.9 2.144-1.773 3.251-2.595a.582.582 0 01.82.124.594.594 0 01-.123.827 59.309 59.309 0 00-3.188 2.545.578.578 0 01-.379.141zM426 902.953a.575.575 0 01-.336-.107 59.512 59.512 0 00-3.412-2.233.594.594 0 01-.2-.812.582.582 0 01.805-.2 59.475 59.475 0 013.481 2.278.6.6 0 01.144.824.585.585 0 01-.482.25zm-65.855-1.453a.585.585 0 01-.5-.275.6.6 0 01.18-.817 61.19 61.19 0 013.572-2.119.585.585 0 01.8.238.6.6 0 01-.235.8 57.51 57.51 0 00-3.5 2.077.574.574 0 01-.317.096zm58.816-2.807a.566.566 0 01-.267-.065c-1.2-.618-2.442-1.2-3.687-1.737a.593.593 0 01-.31-.776.585.585 0 01.77-.313 59.151 59.151 0 013.761 1.773.594.594 0 01.256.795.587.587 0 01-.523.318zm-51.608-1.138a.587.587 0 01-.535-.346.6.6 0 01.291-.784 59.496 59.496 0 013.826-1.6.584.584 0 01.755.347.593.593 0 01-.344.762c-1.262.476-2.523 1-3.75 1.568a.586.586 0 01-.243.048zm44.047-2.1a.583.583 0 01-.192-.033 56.446 56.446 0 00-3.886-1.2.592.592 0 01.305-1.143 59.93 59.93 0 013.964 1.227.593.593 0 01-.191 1.139zm-36.366-.8a.592.592 0 01-.168-1.159 59.477 59.477 0 014.014-1.05.592.592 0 01.256 1.155 57.59 57.59 0 00-3.935 1.03.607.607 0 01-.167.018zm28.441-1.356a.548.548 0 01-.113-.011 59.266 59.266 0 00-4.015-.648.592.592 0 01.146-1.174c1.365.172 2.743.395 4.094.661a.592.592 0 01-.112 1.166zm-20.431-.444a.592.592 0 01-.087-1.177 59.496 59.496 0 014.118-.48.591.591 0 01.1 1.179c-1.348.11-2.707.269-4.038.472a.662.662 0 01-.093 0zm12.287-.581h-.031a59.285 59.285 0 00-4.065-.087h-.008a.592.592 0 01-.007-1.184 60.262 60.262 0 014.145.09.592.592 0 01-.034 1.175zm-3.341 107.499c-1.257 0-2.526-.05-3.772-.147a.591.591 0 01-.539-.636.579.579 0 01.631-.544c1.215.1 2.453.144 3.679.144h.374a.592.592 0 010 1.183zm4.477-.211a.592.592 0 01-.055-1.18c1.345-.128 2.7-.316 4.017-.559a.591.591 0 01.211 1.164c-1.355.249-2.74.442-4.118.572a.507.507 0 01-.055.003zm-12.278-.435a.526.526 0 01-.1-.008 47.311 47.311 0 01-4.067-.865.591.591 0 01.292-1.146c1.3.337 2.636.621 3.967.844a.592.592 0 01-.092 1.175zm20.349-1.05a.593.593 0 01-.155-1.163c1.3-.359 2.6-.781 3.859-1.253a.591.591 0 01.408 1.109 47.525 47.525 0 01-3.956 1.286.609.609 0 01-.156.021zm-28.294-1.01a.611.611 0 01-.2-.033c-1.3-.464-2.6-.991-3.858-1.568a.593.593 0 01-.291-.783.584.584 0 01.777-.294 46.58 46.58 0 003.763 1.528.593.593 0 01.358.755.586.586 0 01-.549.395zm35.984-1.867a.587.587 0 01-.531-.339.594.594 0 01.279-.788 46.635 46.635 0 003.584-1.91.585.585 0 01.8.212.593.593 0 01-.21.809 47.757 47.757 0 01-3.674 1.959.592.592 0 01-.248.057zm-43.457-1.557a.582.582 0 01-.288-.077 48.277 48.277 0 01-3.529-2.217.6.6 0 01-.153-.822.585.585 0 01.817-.154c1.111.768 2.27 1.5 3.442 2.163a.594.594 0 01.223.806.586.586 0 01-.512.301zm50.536-2.622a.583.583 0 01-.479-.25.594.594 0 01.139-.825 45.947 45.947 0 003.2-2.506.584.584 0 01.827.069.6.6 0 01-.068.834 48.48 48.48 0 01-3.285 2.569.584.584 0 01-.334.109zM362 988.967a.583.583 0 01-.372-.134 48.628 48.628 0 01-3.1-2.8.6.6 0 01-.009-.837.585.585 0 01.83-.01 46.824 46.824 0 003.021 2.729.594.594 0 01.081.832.584.584 0 01-.451.22zm63.565-3.294a.578.578 0 01-.413-.172.6.6 0 010-.837 47.203 47.203 0 002.731-3.024.583.583 0 01.826-.075.594.594 0 01.075.833 48.119 48.119 0 01-2.8 3.1.586.586 0 01-.418.175zm-69.436-2.486a.583.583 0 01-.444-.206 48.634 48.634 0 01-2.575-3.291.6.6 0 01.133-.826.585.585 0 01.82.134 48.745 48.745 0 002.511 3.211.594.594 0 01-.062.834.577.577 0 01-.382.144zm74.691-3.867a.581.581 0 01-.335-.106.6.6 0 01-.146-.824c.77-1.115 1.5-2.276 2.173-3.454a.586.586 0 01.8-.218.594.594 0 01.216.808 48.173 48.173 0 01-2.228 3.541.586.586 0 01-.479.253zm-79.486-2.844a.587.587 0 01-.5-.288 49.01 49.01 0 01-1.972-3.689.594.594 0 01.273-.79.585.585 0 01.784.275 47.974 47.974 0 001.924 3.6.594.594 0 01-.2.811.586.586 0 01-.308.081zm83.577-4.33a.586.586 0 01-.247-.054.6.6 0 01-.285-.786 47.18 47.18 0 001.547-3.781.586.586 0 01.752-.355.592.592 0 01.351.758c-.471 1.311-1 2.615-1.585 3.877a.587.587 0 01-.532.341zm-87.151-3.112a.588.588 0 01-.548-.382c-.491-1.3-.93-2.64-1.306-3.979a.587.587 0 111.129-.322 49.13 49.13 0 001.274 3.88.594.594 0 01-.34.764.569.569 0 01-.208.039zm89.945-4.666a.6.6 0 01-.151-.02.592.592 0 01-.417-.724c.345-1.308.638-2.651.87-3.993a.587.587 0 111.156.2 48.552 48.552 0 01-.891 4.094.588.588 0 01-.566.443zm-92.18-3.293a.589.589 0 01-.576-.481 48.944 48.944 0 01-.6-4.145.587.587 0 111.168-.122c.138 1.356.335 2.717.586 4.046a.591.591 0 01-.466.692.715.715 0 01-.111.01zm93.589-4.856a.435.435 0 01-.051 0 .589.589 0 01-.534-.64c.114-1.346.173-2.72.173-4.084q0-.756-.024-1.507a.59.59 0 01.568-.61.577.577 0 01.6.573q.026.768.025 1.544c0 1.4-.06 2.806-.178 4.186a.587.587 0 01-.578.538zm-94.422-3.371a.589.589 0 01-.587-.582q-.006-.385-.006-.771c0-1.137.04-2.286.119-3.417a.586.586 0 111.17.082 48.648 48.648 0 00-.109 4.087.59.59 0 01-.578.6h-.009zm94.268-6.416a.59.59 0 01-.582-.522 48.015 48.015 0 00-.65-4.035.587.587 0 111.149-.241c.28 1.358.5 2.75.667 4.136a.59.59 0 01-.514.657.549.549 0 01-.069.005zm-93.693-1.832a.582.582 0 01-.092-.008.59.59 0 01-.488-.676 49.02 49.02 0 01.825-4.108.587.587 0 01.712-.432.594.594 0 01.428.718 45.872 45.872 0 00-.806 4.006.589.589 0 01-.579.5zm92.026-6.264a.588.588 0 01-.562-.421c-.388-1.3-.838-2.6-1.336-3.86a.593.593 0 01.328-.769.584.584 0 01.762.33 48.164 48.164 0 011.37 3.958.591.591 0 01-.393.736.551.551 0 01-.169.024zm-90.047-1.762a.58.58 0 01-.191-.032.594.594 0 01-.364-.752 47.984 47.984 0 011.523-3.9.587.587 0 01.775-.3.6.6 0 01.3.782 46.954 46.954 0 00-1.486 3.805.588.588 0 01-.557.395zm87.01-5.919a.586.586 0 01-.525-.326 47.98 47.98 0 00-1.98-3.567.6.6 0 01.19-.814.585.585 0 01.808.192 48.727 48.727 0 012.031 3.657.594.594 0 01-.261.794.567.567 0 01-.263.062zm-83.674-1.643a.574.574 0 01-.284-.074.594.594 0 01-.229-.8 49.164 49.164 0 012.171-3.575.585.585 0 01.815-.16.593.593 0 01.158.821 47.261 47.261 0 00-2.117 3.488.587.587 0 01-.514.298zm79.36-5.392a.582.582 0 01-.471-.238 46.922 46.922 0 00-2.561-3.17.593.593 0 01.049-.835.582.582 0 01.828.049 49.681 49.681 0 012.625 3.249.6.6 0 01-.12.829.588.588 0 01-.35.114zm-74.776-1.47a.58.58 0 01-.368-.131.6.6 0 01-.089-.833 49.385 49.385 0 012.749-3.144.583.583 0 01.83-.016.6.6 0 01.017.836 47.283 47.283 0 00-2.682 3.068.584.584 0 01-.457.218zm69.324-4.712a.589.589 0 01-.4-.161 46.401 46.401 0 00-3.064-2.68.6.6 0 01-.094-.832.583.583 0 01.824-.1 48.186 48.186 0 013.141 2.747.594.594 0 01.023.836.582.582 0 01-.43.188zm-63.637-1.253a.584.584 0 01-.442-.2.6.6 0 01.055-.835c1.038-.917 2.13-1.8 3.244-2.621a.583.583 0 01.82.127.594.594 0 01-.127.827 46.38 46.38 0 00-3.164 2.557.582.582 0 01-.386.143zm57.211-3.893a.577.577 0 01-.324-.1 46.698 46.698 0 00-3.476-2.107.6.6 0 01-.236-.8.587.587 0 01.8-.237 48.158 48.158 0 013.563 2.16.6.6 0 01.166.82.586.586 0 01-.493.262zm-50.593-1a.587.587 0 01-.5-.284.6.6 0 01.2-.813 48.245 48.245 0 013.643-2.017.584.584 0 01.786.268.594.594 0 01-.266.793c-1.207.6-2.4 1.263-3.553 1.968a.586.586 0 01-.31.087zm43.381-2.954a.573.573 0 01-.234-.05 46.039 46.039 0 00-3.786-1.466.592.592 0 01.372-1.123c1.312.443 2.618.948 3.883 1.5a.6.6 0 01.3.779.588.588 0 01-.535.362zm-36.028-.707a.585.585 0 01-.546-.377.592.592 0 01.333-.766 47.818 47.818 0 013.936-1.35.584.584 0 01.728.4.593.593 0 01-.4.733 45.7 45.7 0 00-3.838 1.316.592.592 0 01-.213.046zm28.248-1.921a.591.591 0 01-.138-.016 46.236 46.236 0 00-3.98-.78.592.592 0 01.174-1.171c1.367.206 2.739.476 4.08.8a.592.592 0 01-.136 1.169zm-20.373-.4a.592.592 0 01-.114-1.172 48.165 48.165 0 014.108-.639.592.592 0 01.129 1.177 46.678 46.678 0 00-4.008.623.567.567 0 01-.114.016zm12.259-.826h-.036a47.314 47.314 0 00-4.055-.078.6.6 0 01-.6-.578.59.59 0 01.573-.605 48.415 48.415 0 014.155.079.592.592 0 01-.037 1.187zm-4.735 83.321h-.029a35.7 35.7 0 01-4.149-.448.59.59 0 01-.483-.68.582.582 0 01.675-.487 34.707 34.707 0 004.014.433.592.592 0 01-.028 1.187zm4.1-.032a.592.592 0 01-.038-1.183 35.065 35.065 0 004.006-.5.592.592 0 01.211 1.165 36.037 36.037 0 01-4.14.514zm-12.19-1.321a.622.622 0 01-.163-.023 35.7 35.7 0 01-3.937-1.4.593.593 0 01-.313-.775.585.585 0 01.768-.317 34.464 34.464 0 003.812 1.363.593.593 0 01-.163 1.157zm20.252-.165a.592.592 0 01-.171-1.157 34.984 34.984 0 003.786-1.411.583.583 0 01.773.3.593.593 0 01-.3.779 35.871 35.871 0 01-3.913 1.464.57.57 0 01-.171.03zm-27.814-3.035a.582.582 0 01-.288-.077 36.1 36.1 0 01-3.51-2.277.594.594 0 01-.129-.826.583.583 0 01.82-.13 35.365 35.365 0 003.4 2.2.6.6 0 01.223.806.586.586 0 01-.512.309zm35.318-.285a.588.588 0 01-.507-.293.594.594 0 01.21-.809 34.982 34.982 0 003.359-2.256.582.582 0 01.822.117.593.593 0 01-.116.828 36.023 36.023 0 01-3.472 2.331.571.571 0 01-.292.087zm-41.944-4.581a.582.582 0 01-.4-.157 36.463 36.463 0 01-2.9-3.024.594.594 0 01.061-.834.582.582 0 01.828.063 35.7 35.7 0 002.806 2.925.594.594 0 01.034.836.581.581 0 01-.425.196zM416.44 978a.579.579 0 01-.425-.184.594.594 0 01.021-.836 35.444 35.444 0 002.761-2.971.583.583 0 01.826-.075.594.594 0 01.075.833 36.837 36.837 0 01-2.853 3.071.586.586 0 01-.405.162zm-53.84-5.87a.588.588 0 01-.487-.259 36.793 36.793 0 01-2.137-3.612.6.6 0 01.25-.8.585.585 0 01.791.252 35.638 35.638 0 002.068 3.5.593.593 0 01-.157.821.579.579 0 01-.328.098zm59.09-.474a.577.577 0 01-.321-.1.594.594 0 01-.17-.819 35.334 35.334 0 002.013-3.53.584.584 0 01.788-.264.594.594 0 01.262.794 36.578 36.578 0 01-2.081 3.648.584.584 0 01-.49.271zm-62.873-6.856a.587.587 0 01-.549-.381 36.653 36.653 0 01-1.254-4.013.587.587 0 111.138-.29 35.415 35.415 0 001.213 3.884.591.591 0 01-.34.763.564.564 0 01-.208.037zm66.541-.539a.581.581 0 01-.2-.035.593.593 0 01-.352-.758 35.169 35.169 0 001.151-3.9.587.587 0 111.143.27 36.364 36.364 0 01-1.19 4.035.589.589 0 01-.552.389zm-68.546-7.474a.588.588 0 01-.581-.514 36.944 36.944 0 01-.3-4.194.59.59 0 01.578-.6h.009a.59.59 0 01.587.583 35.474 35.474 0 00.294 4.058.591.591 0 01-.5.664.691.691 0 01-.087.004zm70.422-.572h-.067a.591.591 0 01-.516-.655 36.278 36.278 0 00.23-4.065c0-.381-.006-.761-.018-1.137a.587.587 0 111.173-.038c.013.391.019.782.018 1.176a37.477 37.477 0 01-.237 4.2.589.589 0 01-.583.52zm-70.551-7.688h-.059a.591.591 0 01-.526-.647 36.881 36.881 0 01.65-4.156.587.587 0 111.147.252 35.606 35.606 0 00-.629 4.02.589.589 0 01-.583.532zm70.4-1.722a.589.589 0 01-.581-.5 35.332 35.332 0 00-.821-3.985.591.591 0 01.414-.725.585.585 0 01.719.417 36.577 36.577 0 01.85 4.12.591.591 0 01-.5.671.633.633 0 01-.08.003zm-68.656-6.354a.58.58 0 01-.191-.032.592.592 0 01-.364-.752 36.439 36.439 0 011.585-3.895.583.583 0 01.783-.277.6.6 0 01.275.79 35.3 35.3 0 00-1.534 3.767.588.588 0 01-.553.4zm66.523-1.623a.588.588 0 01-.545-.373 35.122 35.122 0 00-1.711-3.683.594.594 0 01.237-.8.585.585 0 01.8.238 36.5 36.5 0 011.768 3.808.592.592 0 01-.327.769.576.576 0 01-.221.042zM361.976 933a.578.578 0 01-.313-.092.594.594 0 01-.183-.816 36.356 36.356 0 012.43-3.421.583.583 0 01.825-.089.6.6 0 01.089.832 35.26 35.26 0 00-2.352 3.31.583.583 0 01-.496.276zm59.077-1.436a.583.583 0 01-.481-.252 35.61 35.61 0 00-2.506-3.192.6.6 0 01.048-.834.583.583 0 01.829.048 36.372 36.372 0 012.589 3.3.593.593 0 01-.143.823.572.572 0 01-.336.107zm-53.928-5a.583.583 0 01-.418-.177.6.6 0 01.006-.837 36.633 36.633 0 013.14-2.771.584.584 0 01.824.1.6.6 0 01-.1.831 35.233 35.233 0 00-3.037 2.681.587.587 0 01-.415.177zm48.48-1.178a.58.58 0 01-.391-.15 35.539 35.539 0 00-3.163-2.533.593.593 0 01-.142-.823.584.584 0 01.818-.144 36.6 36.6 0 013.273 2.621.594.594 0 01.048.835.581.581 0 01-.443.198zm-42.012-3.9a.583.583 0 01-.5-.285.594.594 0 01.2-.812 36.1 36.1 0 013.684-1.973.587.587 0 01.778.292.594.594 0 01-.288.785 34.539 34.539 0 00-3.564 1.907.588.588 0 01-.31.093zm35.307-.86a.569.569 0 01-.28-.073 34.636 34.636 0 00-3.655-1.731.594.594 0 01-.326-.77.584.584 0 01.763-.329 36.014 36.014 0 013.779 1.791.594.594 0 01.235.8.586.586 0 01-.516.319zm-27.858-2.582a.592.592 0 01-.181-1.155 35.516 35.516 0 014.038-1.061.591.591 0 01.229 1.16 34.55 34.55 0 00-3.9 1.027.575.575 0 01-.186.036zm20.248-.494a.6.6 0 01-.155-.021 34.79 34.79 0 00-3.951-.834.591.591 0 01.174-1.17 35.889 35.889 0 014.085.862.592.592 0 01-.153 1.17zm-12.212-1.123a.592.592 0 01-.047-1.181 35.773 35.773 0 012.947-.121c.424-.009.818.006 1.225.02a.591.591 0 01.566.612.585.585 0 01-.605.571c-.394-.013-.771-.008-1.186-.02-.948 0-1.908.04-2.852.117z" transform="translate(-332 -891)" fill="#ffb534" fill-rule="evenodd"/></svg>