<svg xmlns="http://www.w3.org/2000/svg" width="1920" height="744.03"><path id="Pattern" d="M58.046 2314.18l-1.67-1.58 1.813 1.39 5.19-6.71 30.49-28.82 30.631 28.98 4.26 5.53 48.615-45.99h2.206l-49.889 47.2.744.96-36.567-34.6-36.57 34.6zm-49.888-47.2h2.205l46.6 44.09-.932 1.2zm85.711 80.85l-73.438 69.48-.931-1.21 74.369-70.36 74.369 70.36-.931 1.21zm-14.274 145.98l14.274-13.5 14.274 13.5-.931 1.21-13.343-12.63-13.343 12.63zm-30.047-38.85l44.321-41.94 44.322 41.94-.931 1.2-43.391-41.05-43.389 41.05zm44.321-6.21L65.5 2475.59l-.932-1.21 29.3-27.72 29.3 27.72-.931 1.21zm0-134.56l-88.462 83.69-.932-1.21 89.393-84.57 89.393 84.57-.933 1.21zm21.878-22.55l26.07-24.66h2.206l-27.344 25.87zm-15.025-19.43l5.536-5.23h2.207l-6.809 6.44zm89.384 52.09l-28.354 26.83-.932-1.21 29.2-27.63.014.02.084-.08 29.271 27.69-.933 1.21zm-74.359 216.26l74.359-70.35 74.357 70.35-.932 1.21-73.425-69.47-73.427 69.47zm-15.024-19.43l89.383-84.56 89.381 84.56-.932 1.21-88.449-83.68-88.45 83.68zM-1 2359.24v-2.09l12.9 12.2-.933 1.21zm0-67.28v-2.09l42.941 40.63-.932 1.2zm0 33.64v-2.09l27.919 26.41-.933 1.21zm80.273-58.62h2.207l5.535 5.23-.932 1.21zm-35.559 0h2.206l26.068 24.66-.931 1.21zM-1 2439.95v-2.09l88.015 83.27-.932 1.21zm0 33.64v-2.09l72.989 69.06-.931 1.21zm251.519-159.41l-1.672-1.59 1.815 1.4 5.191-6.71 30.49-28.82 30.631 28.98 4.26 5.53 48.615-45.99h2.206l-49.889 47.2.744.96-36.567-34.6-36.573 34.6zm-49.888-47.2h2.206l46.6 44.09-.932 1.2zm85.712 80.85l-73.438 69.48-.931-1.21 74.369-70.36 74.369 70.36-.933 1.21zm-14.274 145.98l14.274-13.5 14.273 13.5-.932 1.21-13.341-12.63L273 2495.02zm14.274-78.7l-43.391 41.05-.932-1.2 44.323-41.94 44.322 41.94-.933 1.2zm-29.3 59.27l29.3-27.72 29.3 27.72-.932 1.21-28.366-26.84-28.367 26.84zm29.3-160.19l-88.462 83.69-.931-1.21 89.393-84.57 89.393 84.57-.933 1.21zm21.878-22.55l26.069-24.66h2.21l-27.343 25.87zm-15.021-19.43l5.536-5.23h2.207l-6.81 6.44zm89.384 52.09l-28.355 26.83-.931-1.21 29.26-27.68.072.07.025-.03 29.215 27.64-.933 1.21zm-74.359 216.26l74.358-70.35 74.358 70.35-.932 1.21-73.429-69.47-73.427 69.47zm-15.025-19.43l89.382-84.56 89.381 84.56-.929 1.21-88.451-83.68-88.451 83.68zm-117.356-151.78l14.262-13.49 14.262 13.49-.932 1.21-13.33-12.61-13.33 12.61zM145.8 2330.5l44.225-41.85.016.02.085-.08 44.293 41.91-.932 1.2-43.377-41.04-43.379 41.04zm125.951-63.52h2.2l5.535 5.23-.932 1.21zm-35.559 0h2.208l26.068 24.66-.932 1.21zm206.8 47.2l-1.675-1.59 1.818 1.4 5.192-6.71 30.489-28.82 30.633 28.98 4.26 5.53 48.614-45.99h2.206l-49.889 47.2.749.96-36.573-34.6-36.575 34.61zm-49.887-47.2h2.206l46.6 44.09-.931 1.2zm85.711 80.85l-73.437 69.48-.932-1.21 74.369-70.36 74.371 70.36-.935 1.21zm0 134.56l-13.342 12.63-.932-1.21 14.274-13.5 14.275 13.5-.932 1.21zm0-67.28l-43.39 41.05-.932-1.2 44.322-41.94 44.323 41.94-.932 1.2zm-29.3 59.27l29.3-27.72 29.3 27.72-.929 1.21-28.368-26.84-28.365 26.84zm-60.1-77.71l89.393-84.57 89.394 84.57-.932 1.21-88.462-83.69-88.46 83.69zm111.272-105.03l26.068-24.66h2.208l-27.344 25.87zm-15.023-19.43l5.534-5.23h2.208l-6.81 6.44zm89.383 52.09l-28.348 26.83-.932-1.21 29.287-27.7 29.286 27.7-.935 1.21zm-74.36 216.26l74.357-70.35 74.36 70.35-.932 1.21-73.425-69.47-73.428 69.47zm74.36-101.9l-88.448 83.68-.932-1.21 89.383-84.56 89.38 84.56-.932 1.21zm-192.468-80.71l-13.332 12.61-.93-1.21 14.262-13.49 14.262 13.49-.932 1.21zm-44.311-27.45l44.284-41.9.073.07.026-.03 44.237 41.86-.932 1.2-43.377-41.04-43.38 41.04zm125.952-63.52h2.2l5.534 5.23-.929 1.21zm-35.56 0h2.208l26.068 24.66-.932 1.21zm206.8 47.2l-1.675-1.59 1.818 1.4 5.189-6.71 30.492-28.82 30.633 28.98 4.26 5.53 48.614-45.99H757l-49.889 47.2.749.96-36.573-34.6-36.575 34.61zm-49.888-47.2h2.208l46.6 44.09-.931 1.2zm85.712 80.85l-73.436 69.48-.932-1.21 74.368-70.36 74.371 70.36-.934 1.21zm0 134.56l-13.342 12.63-.932-1.21 14.274-13.5 14.274 13.5-.931 1.21zm-44.322-27.43l44.322-41.94 44.323 41.94-.932 1.2-43.391-41.05-43.39 41.05zm15.025 19.42l29.3-27.72 29.3 27.72-.931 1.21-28.366-26.84-28.365 26.84zm29.3-160.19l-88.461 83.69-.932-1.21 89.393-84.57 89.394 84.57-.932 1.21zm21.879-22.55l26.068-24.66h2.208l-27.343 25.87zm-15.023-19.43l5.534-5.23h2.208l-6.81 6.44zm89.383 52.09l-28.355 26.83-.932-1.21 29.287-27.7 29.283 27.7-.932 1.21zm-74.36 216.26l74.357-70.35 74.357 70.35-.929 1.21-73.425-69.47-73.427 69.47zm74.36-101.9l-88.451 83.68-.932-1.21 89.38-84.56 89.382 84.56-.931 1.21zm-206.737-69.31l14.264-13.49 14.261 13.49-.932 1.21-13.329-12.61-13.332 12.61zm-30.048-38.85l44.312-41.93 44.308 41.93-.931 1.2-43.377-41.04-43.38 41.04zm125.95-63.52h2.208l5.534 5.23-.932 1.21zm-35.558 0h2.206l26.071 24.66-.932 1.21zm206.8 47.2l-1.675-1.59 1.818 1.4 5.189-6.71 30.492-28.82 30.633 28.98 4.26 5.53 48.614-45.99h2.205l-49.888 47.2.749.96-36.573-34.6-36.575 34.61zm-49.888-47.2h2.2l46.6 44.09-.931 1.2zm85.712 80.85l-73.439 69.48-.931-1.21 74.37-70.36 74.371 70.36-.935 1.21zm0 134.56l-13.342 12.63-.932-1.21 14.274-13.5 14.274 13.5-.931 1.21zm0-67.28l-43.391 41.05-.931-1.2 44.322-41.94 44.323 41.94-.932 1.2zm-29.3 59.27l29.3-27.72 29.3 27.72-.932 1.21-28.365-26.84-28.361 26.84zm29.3-160.19l-88.458 83.69-.931-1.21 89.393-84.57 89.394 84.57-.932 1.21zm21.879-22.55l26.068-24.66h2.208l-27.345 25.87zm-15.023-19.43l5.533-5.23h2.208l-6.809 6.44zM960 2324.3l-28.355 26.83-.929-1.21 29.284-27.7 29.284 27.7-.932 1.21zm-74.357 216.26L960 2470.21l74.361 70.35-.94 1.21L960 2472.3l-73.426 69.47zM960 2438.66l-88.448 83.68-.932-1.21 89.38-84.56 89.381 84.56-.93 1.21zm-206.735-69.31l14.264-13.49 14.26 13.49-.931 1.21-13.329-12.61-13.329 12.61zm-30.048-38.85l44.309-41.93 44.311 41.93-.931 1.2-43.377-41.04-43.38 41.04zm125.95-63.52h2.208l5.533 5.23-.931 1.21zm-35.558 0h2.206l26.068 24.66-.929 1.2zm206.8 47.2l-1.67-1.59 1.82 1.4 5.18-6.71 30.5-28.82 30.63 28.98 4.26 5.53 48.61-45.99h2.21l-49.89 47.2.75.96-36.57-34.6-36.58 34.61zm-49.885-47.2h2.205l46.6 44.09-.93 1.2zm11.341 149.12l74.374-70.36 74.36 70.36-.93 1.21-73.43-69.48-73.439 69.48zm74.374 66.29l-13.35 12.63-.93-1.21 14.28-13.5 14.27 13.5-.93 1.21zm-44.33-27.43l44.33-41.94 44.32 41.94-.93 1.2-43.39-41.05-43.39 41.05zm15.03 19.42l29.3-27.72 29.29 27.72-.93 1.21-28.36-26.84-28.37 26.84zm29.3-160.19l-88.465 83.69-.932-1.21 89.4-84.57 89.39 84.57-.93 1.21zm21.88-22.55l26.06-24.66h2.21l-27.34 25.87zm-15.03-19.43l5.54-5.23h2.2l-6.81 6.44zm89.38 52.09l-28.35 26.83-.93-1.21 29.28-27.7 29.29 27.7-.93 1.21zm-74.35 216.26l74.35-70.35 74.36 70.35-.93 1.21-73.43-69.47-73.42 69.47zm74.35-101.9l-88.45 83.68-.93-1.21 89.38-84.56 89.39 84.56-.94 1.21zm-206.732-69.31L960 2355.86l14.261 13.49-.932 1.21L960 2357.95l-13.329 12.61zm-30.047-38.85l44.31-41.93 44.311 41.93-.93 1.2L960 2290.66l-43.377 41.04zm125.95-63.52h2.21l5.53 5.23-.93 1.21zm-35.56 0h2.21l26.07 24.66-.94 1.21zm206.81 47.2l-49.89-47.2h2.2l48.62 45.99 4.4-5.69 30.49-28.82 30.63 28.98 4.26 5.53 48.62-45.99h2.2l-49.89 47.2.74.95-36.56-34.59-36.57 34.61zm-38.55 101.92l74.37-70.36 74.37 70.36-.93 1.21-73.44-69.48-73.44 69.48zm60.1 77.71l14.27-13.5 14.27 13.5-.93 1.21-13.34-12.63-13.34 12.63zm14.27-78.7l-43.39 41.05-.93-1.2 44.32-41.94 44.32 41.94-.93 1.2zm-29.3 59.27l29.3-27.72 29.3 27.72-.93 1.21-28.37-26.84-28.37 26.84zm29.3-160.19l-88.46 83.69-.93-1.21 89.39-84.57 89.39 84.57-.93 1.21zm21.88-22.55l26.07-24.66h2.2l-27.34 25.87zm-15.03-19.43l5.54-5.23h2.21l-6.81 6.44zm89.39 52.09l-28.36 26.83-.93-1.21 29.2-27.63.08.09.08-.1 29.21 27.64-.93 1.21zm-74.36 216.26l74.33-70.33.02.02.02-.02 74.34 70.33-.93 1.21-73.42-69.47-73.43 69.47zm74.36-101.9l-88.45 83.68-.94-1.21 89.36-84.54.02.02.02-.03 89.37 84.55-.93 1.21zm-206.74-69.31l14.27-13.49 14.26 13.49-.94 1.21-13.33-12.61-13.33 12.61zm14.26-78.69l-43.37 41.04-.94-1.2 44.31-41.93 44.31 41.93-.93 1.2zm81.64-23.68h2.21l5.54 5.23-.94 1.21zm-35.55 0h2.2l26.07 24.66-.93 1.21zm242.62 13.56l-36.56 34.6.74-.96-49.89-47.2h2.21l48.61 45.99 4.4-5.69 30.49-28.82 30.64 28.98 4.25 5.53 48.62-45.99h2.21l-49.89 47.2.74.96zm0 67.29l-73.43 69.48-.94-1.21 74.37-70.36 74.37 70.36-.93 1.21zm0 134.56l-13.34 12.63-.93-1.21 14.27-13.5 14.28 13.5-.94 1.21zm0-67.28l-43.39 41.05-.93-1.2 44.32-41.94 44.32 41.94-.93 1.2zm0 33.64l-28.36 26.84-.93-1.21 29.29-27.72 29.3 27.72-.93 1.21zm0-134.56l-88.46 83.69-.93-1.21 89.39-84.57 89.4 84.57-.94 1.21zm21.88-22.55l26.07-24.66h2.21l-27.35 25.86zm-15.02-19.43l5.53-5.23h2.21l-6.81 6.44zm89.38 52.09l-28.35 26.83-.94-1.21 29.21-27.63.07.09.08-.1 29.22 27.64-.94 1.21zm0 148l-73.43 69.47-.93-1.21 74.34-70.33.01.02.02-.02 74.35 70.33-.93 1.21zm0-33.64l-88.45 83.68-.93-1.21 89.36-84.54.01.02.02-.03 89.37 84.55-.93 1.21zm-206.73-69.31l14.23-13.47.02.02.02-.03 14.25 13.48-.93 1.21-13.33-12.61-13.33 12.61zm14.26-78.69l-43.38 41.04-.93-1.2 44.22-41.85.08.09.08-.1 44.24 41.86-.94 1.2zm81.64-23.68h2.2l5.54 5.23-.93 1.21zm-35.56 0h2.21l26.06 24.66-.93 1.21zM93.869 2596.75l-73.438 69.48-.932-1.21 74.369-70.36 74.369 70.36-.931 1.21zm-14.274 145.98l14.274-13.5 14.274 13.5-.931 1.21-13.343-12.63-13.343 12.63zm-30.047-38.85l44.321-41.94 44.322 41.94-.931 1.2-43.391-41.05-43.389 41.05zm44.321-6.21L65.5 2724.51l-.932-1.21 29.3-27.72 29.3 27.72-.931 1.21zm0-134.56L5.407 2646.8l-.932-1.21 89.393-84.57 89.393 84.57-.933 1.21zm96.237 43.76l-13.33 12.61-.932-1.21 14.262-13.49 14.262 13.49-.932 1.21zm0-67.29l-43.379 41.04-.931-1.2 44.31-41.93 44.309 41.93-.932 1.2zm0 33.64l-28.354 26.83-.932-1.21 29.286-27.7 29.286 27.7-.933 1.21zm-74.359 216.26l74.359-70.35 74.357 70.35-.932 1.21-73.425-69.47-73.427 69.47zm-15.025-19.43l89.384-84.56 89.381 84.56-.932 1.21-88.449-83.68-88.45 83.68zM-1 2608.16v-2.09l12.9 12.2-.933 1.21zm0-67.28v-2.09l42.941 40.63-.932 1.2zm0 33.64v-2.09l27.918 26.41-.931 1.21zm0 114.35v-2.09l88.015 83.27-.932 1.21zm0 33.64v-2.09l72.989 69.06-.931 1.21zm287.343-125.76l-73.438 69.48-.931-1.21 74.369-70.36 74.369 70.36-.933 1.21zm-14.274 145.98l14.274-13.5 14.273 13.5-.932 1.21-13.341-12.63L273 2743.94zm14.274-78.7l-43.391 41.05-.932-1.2 44.323-41.94 44.322 41.94-.933 1.2zm-29.3 59.27l29.3-27.72 29.3 27.72-.932 1.21-28.366-26.84-28.367 26.84zm29.3-160.19l-88.462 83.69-.931-1.21 89.393-84.57 89.393 84.57-.933 1.21zm96.237 43.76l-13.332 12.61-.932-1.21 14.264-13.49 14.262 13.49-.932 1.21zm0-67.29l-43.38 41.04-.932-1.2 44.311-41.93 44.309 41.93-.932 1.2zm0 33.64l-28.355 26.83-.931-1.21 29.286-27.7 29.286 27.7-.933 1.21zm-74.359 216.26l74.358-70.35 74.358 70.35-.932 1.21-73.425-69.47-73.427 69.47zm-15.021-19.43l89.383-84.56 89.381 84.56-.929 1.21-88.451-83.68-88.451 83.68zm185.619-173.3l-73.437 69.48-.932-1.21 74.369-70.36 74.371 70.36-.935 1.21zm0 134.56l-13.342 12.63-.932-1.21 14.274-13.5 14.275 13.5-.932 1.21zm0-67.28l-43.39 41.05-.932-1.2 44.322-41.94 44.323 41.94-.932 1.2zm-29.3 59.27l29.3-27.72 29.3 27.72-.929 1.21-28.368-26.84-28.365 26.84zm-60.1-77.71l89.393-84.57 89.394 84.57-.932 1.21-88.462-83.69-88.46 83.69zm171.368-27.32l14.264-13.49 14.261 13.49-.932 1.21-13.329-12.61-13.332 12.61zm14.264-78.69l-43.38 41.04-.932-1.2 44.312-41.93 44.308 41.93-.931 1.2zm0 33.64l-28.351 26.83-.932-1.21 29.287-27.7 29.286 27.7-.935 1.21zm-74.36 216.26l74.357-70.35 74.36 70.35-.932 1.21-73.425-69.47-73.428 69.47zm-15.023-19.43l89.383-84.56 89.38 84.56-.932 1.21-88.448-83.68-88.451 83.68zm185.618-173.3l-73.436 69.48-.932-1.21 74.368-70.36 74.371 70.36-.934 1.21zm0 134.56l-13.342 12.63-.932-1.21 14.274-13.5 14.274 13.5-.931 1.21zm-44.322-27.43l44.322-41.94 44.323 41.94-.932 1.2-43.391-41.05-43.39 41.05zm15.025 19.42l29.3-27.72 29.3 27.72-.931 1.21-28.366-26.84-28.365 26.84zm29.3-160.19l-88.461 83.69-.932-1.21 89.393-84.57 89.394 84.57-.932 1.21zm81.975 55.16l14.261-13.49 14.263 13.49-.931 1.21-13.329-12.61-13.328 12.61zm14.264-78.69l-43.38 41.04-.932-1.2 44.309-41.93 44.311 41.93-.931 1.2zm0 33.64l-28.355 26.83-.932-1.21 29.287-27.7 29.283 27.7-.932 1.21zm-74.36 216.26l74.357-70.35 74.357 70.35-.929 1.2-73.425-69.46-73.428 69.47zm-15.023-19.43l89.38-84.56 89.382 84.56-.931 1.21-88.448-83.68-88.451 83.68zm185.618-173.3l-73.439 69.48-.931-1.21 74.37-70.36 74.371 70.36-.935 1.21zm0 134.56l-13.342 12.63-.932-1.21 14.274-13.5 14.274 13.5-.931 1.21zm0-67.28l-43.391 41.05-.931-1.2 44.322-41.94 44.323 41.94-.932 1.2zm-29.3 59.27l29.3-27.72 29.3 27.72-.932 1.21-28.365-26.84-28.366 26.84zm29.3-160.19L775.3 2646.8l-.931-1.21 89.393-84.57 89.394 84.57-.932 1.21zM960 2606.87l-13.329 12.61-.932-1.21L960 2604.78l14.261 13.49-.932 1.21zm0-67.29l-43.377 41.04-.932-1.2L960 2537.49l44.311 41.93-.93 1.2zm0 33.64l-28.355 26.83-.929-1.21 29.284-27.7 29.284 27.7-.932 1.21zm-74.357 216.26L960 2719.13l74.361 70.35-.94 1.21L960 2721.22l-73.426 69.47zm-15.023-19.43l89.38-84.56 89.381 84.56-.93 1.21L960 2687.58l-88.448 83.68zm111.247-105.03l74.374-70.36 74.36 70.36-.93 1.21-73.43-69.48-73.441 69.48zm74.374 66.29l-13.35 12.63-.93-1.21 14.28-13.5 14.27 13.5-.93 1.21zm-44.33-27.43l44.33-41.94 44.32 41.94-.93 1.2-43.39-41.05-43.39 41.05zm15.03 19.42l29.3-27.72 29.29 27.72-.93 1.21-28.36-26.84-28.37 26.84zm29.3-160.19l-88.465 83.69-.932-1.21 89.4-84.57 89.39 84.57-.93 1.21zm96.23 43.76l-13.33 12.61-.93-1.21 14.26-13.49 14.27 13.49-.94 1.21zm0-67.29l-43.37 41.04-.94-1.2 44.31-41.93 44.31 41.93-.93 1.2zm0 33.64l-28.35 26.83-.93-1.21 29.28-27.7 29.29 27.7-.93 1.21zm-74.35 216.26l74.35-70.35 74.36 70.35-.93 1.21-73.43-69.47-73.42 69.47zm-15.03-19.43l89.38-84.56 89.39 84.56-.94 1.21-88.45-83.68-88.45 83.68zm111.25-105.03l74.37-70.36 74.37 70.36-.93 1.21-73.44-69.48-73.44 69.48zm60.1 77.71l14.27-13.5 14.27 13.5-.93 1.21-13.34-12.63-13.34 12.63zm14.27-78.7l-43.39 41.05-.93-1.2 44.32-41.94 44.32 41.94-.93 1.2zm-29.3 59.27l29.3-27.72 29.3 27.72-.93 1.21-28.37-26.84-28.37 26.84zm29.3-160.19l-88.46 83.69-.93-1.21 89.39-84.57 89.39 84.57-.93 1.21zm96.24 43.76l-13.33 12.61-.93-1.21 14.23-13.47.02.02.02-.03 14.25 13.48-.93 1.21zm0-67.29l-43.38 41.04-.93-1.2 44.28-41.9.02.01.02-.02 44.3 41.91-.94 1.2zm0 33.64l-28.36 26.83-.93-1.21 29.26-27.68.02.01.02-.02 29.27 27.69-.93 1.21zm-74.36 216.26l74.33-70.33.02.02.02-.03 74.34 70.34-.93 1.21-73.42-69.47-73.43 69.47zm-15.03-19.43l89.36-84.54.02.02.02-.03 89.37 84.55-.93 1.21-88.45-83.68-88.45 83.68zm185.62-173.3l-73.43 69.48-.94-1.21 74.37-70.36 74.37 70.36-.93 1.21zm0 134.56l-13.34 12.63-.93-1.21 14.27-13.5 14.28 13.5-.94 1.21zm0-67.28l-43.39 41.05-.93-1.2 44.32-41.94 44.32 41.94-.93 1.2zm0 33.64l-28.36 26.84-.93-1.21 29.29-27.72 29.3 27.72-.93 1.21zm0-134.56l-88.46 83.69-.93-1.21 89.39-84.57 89.4 84.57-.94 1.21zm96.24 43.76l-13.33 12.61-.93-1.21 14.24-13.47.01.02.02-.03 14.25 13.48-.93 1.21zm0-67.29l-43.38 41.04-.93-1.2 44.29-41.9.01.01.02-.02 44.3 41.91-.93 1.2zm0 33.64l-28.35 26.83-.94-1.21 29.27-27.68.01.01.02-.02 29.28 27.69-.94 1.21zm0 148l-73.43 69.46-.93-1.2 74.34-70.33.01.02.02-.03 74.35 70.34-.93 1.21zm-89.38 48.83l89.36-84.54.01.02.02-.03 89.37 84.55-.93 1.21-88.45-83.68-88.45 83.68zM93.869 2845.67l-73.438 69.48-.932-1.21 74.369-70.36 74.369 70.36-.931 1.21zm-14.274 145.98l14.274-13.5 14.274 13.5-.931 1.21-13.343-12.63-13.343 12.63zm-30.047-38.85l44.321-41.94 44.322 41.94-.931 1.2-43.391-41.05L50.48 2954zm44.321-6.21L65.5 2973.43l-.932-1.21 29.3-27.72 29.3 27.72-.931 1.21zm0-134.56l-88.462 83.69-.932-1.21 89.393-84.57 89.393 84.57-.933 1.21zm81.975 55.16l14.262-13.49 14.262 13.49-.932 1.21-13.33-12.61-13.33 12.61zm-30.044-38.85l44.225-41.85.016.02.085-.08 44.293 41.91-.932 1.2-43.377-41.04-43.379 41.04zm44.31-6.2l-28.354 26.83-.932-1.21 29.2-27.63.014.02.084-.08 29.271 27.69-.933 1.21zm43.173 188.85l-43.173-40.85-43.173 40.85h-2.208l45.381-42.94 45.379 42.94h-2.206zm-35.558 0l-7.615-7.21-7.615 7.21h-2.207l9.822-9.3 9.822 9.3h-2.207zm71.116 0l-78.731-74.49-78.732 74.49h-2.206l80.938-76.58 80.938 76.58h-2.207zM-1 2857.08v-2.09l12.9 12.2-.933 1.21zm0-67.28v-2.09l42.941 40.63-.932 1.2zm0 33.64v-2.09l27.919 26.41-.933 1.21zm77.364 187.55L-1 2937.79v-2.09l79.57 75.29h-2.206zm-71.116 0L-1 3005.07v-2.08l8.455 8H5.247zm35.557 0L-1 2971.43v-2.09l44.013 41.65H40.8zm245.538-165.32l-73.438 69.48-.931-1.21 74.369-70.36 74.369 70.36-.933 1.21zm-14.274 145.98l14.274-13.5 14.273 13.5-.932 1.21-13.341-12.63L273 2992.86zm14.274-78.7L242.952 2954l-.932-1.2 44.323-41.94 44.322 41.94-.933 1.2zm-29.3 59.27l29.3-27.72 29.3 27.72-.932 1.21-28.366-26.84-28.367 26.84zm29.3-160.19l-88.462 83.69-.931-1.21 89.393-84.57 89.393 84.57-.933 1.21zm96.237 43.76l-13.332 12.61-.93-1.21 14.262-13.49 14.262 13.49-.932 1.21zm-44.311-27.45l44.284-41.9.073.07.026-.03 44.237 41.86-.932 1.2-43.377-41.04-43.38 41.04zm44.311-6.2l-28.355 26.83-.931-1.21 29.26-27.68.072.07.025-.03 29.215 27.64-.933 1.21zm43.172 188.85l-43.172-40.85-43.174 40.85H337.2l45.38-42.94 45.379 42.94h-2.206zm-35.557 0l-7.615-7.21-7.615 7.21h-2.207l9.822-9.3 9.822 9.3H390.2zm71.115 0l-78.73-74.49-78.732 74.49h-2.208l80.94-76.58 80.938 76.58h-2.208zm17.5-165.32l-73.437 69.48-.932-1.21 74.369-70.36 74.371 70.36-.935 1.21zm0 134.56l-13.342 12.63-.932-1.21 14.274-13.5 14.275 13.5-.932 1.21zm0-67.28L435.425 2954l-.932-1.2 44.322-41.94 44.323 41.94-.932 1.2zm-29.3 59.27l29.3-27.72 29.3 27.72-.929 1.21-28.368-26.84-28.365 26.84zm-60.1-77.71l89.393-84.57 89.394 84.57-.932 1.21-88.462-83.69-88.46 83.69zm171.368-27.32l14.264-13.49 14.261 13.49-.932 1.21-13.329-12.61-13.332 12.61zm-30.048-38.85l44.312-41.93 44.308 41.93-.931 1.2-43.377-41.04-43.38 41.04zm44.312-6.2l-28.342 26.83-.932-1.21 29.287-27.7 29.286 27.7-.935 1.21zm43.172 188.85l-43.172-40.85-43.176 40.85h-2.205l45.381-42.94 45.378 42.94h-2.206zm-35.557 0l-7.615-7.21-7.615 7.21h-2.208l9.823-9.3 9.82 9.3h-2.205zm71.115 0l-78.73-74.49-78.733 74.49h-2.208l80.941-76.58 80.938 76.58h-2.208zm17.5-165.32l-73.436 69.48-.932-1.21 74.368-70.36 74.371 70.36-.934 1.21zm0 134.56l-13.342 12.63-.932-1.21 14.274-13.5 14.274 13.5-.931 1.21zm-44.322-27.43l44.322-41.94 44.323 41.94-.932 1.2-43.391-41.05L627.9 2954zm15.025 19.42l29.3-27.72 29.3 27.72-.931 1.21-28.366-26.84-28.365 26.84zm29.3-160.19l-88.461 83.69-.932-1.21 89.393-84.57 89.394 84.57-.932 1.21zm81.975 55.16l14.264-13.49 14.26 13.49-.931 1.21-13.329-12.61-13.314 12.61zm-30.048-38.85l44.309-41.93 44.311 41.93-.931 1.2-43.377-41.04-43.38 41.04zm44.312-6.2l-28.355 26.83-.932-1.21 29.287-27.7 29.283 27.7-.932 1.21zm43.186 188.85l-43.172-40.85-43.176 40.85h-2.2l45.378-42.94 45.38 42.94h-2.2zm-35.56 0l-7.612-7.21-7.615 7.21h-2.208l9.82-9.3 9.823 9.3h-2.208zm71.118 0l-78.73-74.49-78.728 74.49h-2.208l80.938-76.58 80.941 76.58h-2.208zm17.5-165.32l-73.439 69.48-.931-1.21 74.37-70.36 74.371 70.36-.935 1.21zm0 134.56l-13.342 12.63-.932-1.21 14.274-13.5 14.274 13.5-.931 1.21zm0-67.28L820.372 2954l-.931-1.2 44.322-41.94 44.323 41.94-.932 1.2zm-29.3 59.27l29.3-27.72 29.3 27.72-.932 1.21-28.365-26.84-28.361 26.84zm29.3-160.19l-88.458 83.69-.931-1.21 89.393-84.57 89.394 84.57-.932 1.21zm81.975 55.16L960 2853.7l14.261 13.49-.932 1.21L960 2855.79l-13.33 12.61zm-30.048-38.85L960 2786.41l44.311 41.93-.93 1.2L960 2788.5l-43.377 41.04zm44.309-6.2l-28.355 26.83-.929-1.21 29.29-27.7 29.284 27.7-.932 1.21zm43.171 188.85L960 2970.14l-43.173 40.85h-2.208L960 2968.05l45.381 42.94h-2.21zm-35.556 0l-7.609-7.21-7.615 7.21h-2.208l9.823-9.3 9.821 9.3h-2.208zm71.116 0L960 2936.5l-78.73 74.49h-2.208L960 2934.41l80.941 76.58h-2.21zm-56.864-97.05l74.374-70.36 74.36 70.36-.93 1.21-73.43-69.48-73.435 69.48zm74.374 66.29l-13.35 12.63-.93-1.21 14.28-13.5 14.27 13.5-.93 1.21zm-44.33-27.43l44.33-41.94 44.32 41.94-.93 1.2-43.39-41.05-43.385 41.05zm15.03 19.42l29.3-27.72 29.29 27.72-.93 1.21-28.36-26.84-28.37 26.84zm29.3-160.19l-88.465 83.69-.932-1.21 89.4-84.57 89.39 84.57-.93 1.21zm81.97 55.16l14.27-13.49 14.26 13.49-.94 1.21-13.33-12.61-13.33 12.61zm14.26-78.69l-43.37 41.04-.94-1.2 44.31-41.93 44.31 41.93-.93 1.2zm0 33.64l-28.35 26.83-.93-1.21 29.28-27.7 29.29 27.7-.93 1.21zm43.18 188.85l-43.18-40.85-43.17 40.85h-2.21l45.38-42.94 45.38 42.94h-2.2zm-35.56 0l-7.62-7.21-7.61 7.21h-2.21l9.82-9.3 9.83 9.3h-2.21zm71.12 0l-78.74-74.49-78.73 74.49h-2.21l80.94-76.58 80.94 76.58h-2.2zm-56.87-97.05l74.37-70.36 74.37 70.36-.93 1.21-73.44-69.48-73.44 69.48zm60.1 77.71l14.27-13.5 14.27 13.5-.93 1.21-13.34-12.63-13.34 12.63zm14.27-78.7L1205.32 2954l-.93-1.2 44.32-41.94 44.32 41.94-.93 1.2zm-29.3 59.27l29.3-27.72 29.3 27.72-.93 1.21-28.37-26.84-28.37 26.84zm29.3-160.19l-88.46 83.69-.93-1.21 89.39-84.57 89.39 84.57-.93 1.21zm81.98 55.16l14.23-13.47.02.02.02-.03 14.25 13.48-.93 1.21-13.33-12.61-13.33 12.61zm14.26-78.69l-43.38 41.04-.93-1.2 44.22-41.85.08.09.08-.1 44.24 41.86-.94 1.2zm0 33.64l-28.36 26.83-.93-1.21 29.2-27.63.08.09.08-.09 29.21 27.63-.93 1.21zm43.17 188.85l-43.17-40.85-43.18 40.85h-2.2l45.35-42.92.02.02.02-.03 45.37 42.93h-2.21zm-35.56 0l-7.61-7.21-7.62 7.21h-2.2l9.79-9.27.02.01.02-.02 9.81 9.28h-2.21zm71.12 0l-78.73-74.49-78.73 74.49h-2.21l80.91-76.56.02.02.02-.03 80.92 76.57h-2.2zm17.5-165.32l-73.43 69.48-.94-1.21 74.37-70.36 74.37 70.36-.93 1.21zm0 134.56l-13.34 12.63-.93-1.21 14.27-13.5 14.28 13.5-.94 1.21zm0-67.28L1397.79 2954l-.93-1.2 44.32-41.94 44.32 41.94-.93 1.2zm0 33.64l-28.36 26.84-.93-1.21 29.29-27.72 29.3 27.72-.93 1.21zm0-134.56l-88.46 83.69-.93-1.21 89.39-84.57 89.4 84.57-.94 1.21zm96.24 43.76l-13.33 12.61-.93-1.21 14.24-13.47.01.02.02-.03 14.25 13.48-.93 1.21zm0-67.29l-43.38 41.04-.93-1.2 44.23-41.85.07.09.08-.1 44.24 41.86-.93 1.2zm0 33.64l-28.35 26.83-.94-1.21 29.21-27.63.07.09.08-.09 29.22 27.63-.94 1.21zm43.17 188.85l-43.17-40.85-43.17 40.85h-2.21l45.36-42.92.01.02.02-.03 45.37 42.93h-2.21zm-35.55 0l-7.62-7.21-7.61 7.21h-2.21l9.8-9.27.01.01.02-.02 9.81 9.28h-2.2zm71.11 0l-78.73-74.49-78.73 74.49h-2.21l80.92-76.56.01.02.02-.03 80.93 76.57h-2.21zm17.51-730.45l-36.57 34.6.74-.96-1.66-1.58 1.8 1.39 5.2-6.71 30.49-28.82 30.63 28.98 4.26 5.53 48.61-45.99h2.21l-49.89 47.2.75.96zm-85.71-13.56h2.2l46.6 44.09-.93 1.2zm85.71 80.85l-73.44 69.48-.93-1.21 74.37-70.36 74.37 70.36-.94 1.21zm0 134.56l-13.35 12.63-.93-1.21 14.28-13.5 14.27 13.5-.93 1.21zm0-67.28l-43.39 41.05-.93-1.2 44.32-41.94 44.32 41.94-.93 1.2zm0 33.64l-28.37 26.84-.93-1.21 29.3-27.72 29.3 27.72-.94 1.21zm0-134.56l-88.47 83.69-.93-1.21 89.4-84.57 89.39 84.57-.93 1.21zm21.87-22.55l26.08-24.66h2.2l-27.34 25.87zm-15.02-19.43l5.54-5.23h2.2l-6.81 6.44zm60.1 77.71l29.2-27.63.07.09.09-.1 29.21 27.64-.93 1.21-28.36-26.83-28.35 26.83zm-45.08 190.64l74.34-70.33.01.02.03-.02 74.34 70.33-.93 1.21-73.43-69.47-73.42 69.47zm-15.02-19.43l89.36-84.54.01.02.03-.03 89.36 84.55-.92 1.21-88.46-83.68-88.45 83.68zm-103.09-163.18l-13.33 12.61-.93-1.21 14.24-13.47.01.02.02-.03 14.25 13.48-.93 1.21zm0-67.29l-43.38 41.04-.93-1.2 44.23-41.85.07.09.08-.1 44.24 41.86-.93 1.2zm81.64-23.68h2.21l5.53 5.23-.93 1.21zm-35.56 0h2.21l26.07 24.66-.93 1.21zm206.81 47.2l-1.68-1.59 1.82 1.4 5.19-6.71 30.49-28.82 30.63 28.98 4.26 5.53 48.62-45.99h2.2l-49.89 47.2.75.96-36.57-34.6-36.58 34.61zm-49.89-47.2h2.21l46.6 44.09-.94 1.2zm85.71 80.85l-73.44 69.48-.93-1.21 74.37-70.36 74.37 70.36-.93 1.21zm0 134.56l-13.34 12.63-.93-1.21 14.27-13.5 14.27 13.5-.93 1.21zm0-67.28l-43.39 41.05-.93-1.2 44.32-41.94 44.32 41.94-.93 1.2zm-29.3 59.27l29.3-27.72 29.3 27.72-.93 1.21-28.37-26.84-28.37 26.84zm29.3-160.19l-88.46 83.69-.93-1.21 89.39-84.57 89.39 84.57-.93 1.21zm81.97 55.16l12.9-12.2v2.09l-11.96 11.32zm-60.09-77.71l26.07-24.66h2.2l-27.34 25.87zm-15.02-19.43l5.53-5.23h2.21l-6.81 6.44zm45.07 58.29l42.94-40.63v2.09l-42.01 39.74zm15.02 19.42l27.92-26.41v2.09l-26.99 25.53zm-391.47 88.72l-60.43-57.17-60.42 57.17.75.96-36.56-34.58-36.57 34.59.76-.97-60.43-57.17-60.43 57.17.75.96-36.56-34.58-36.56 34.59.75-.97-60.42-57.17-60.428 57.17.754.97L960 2405.02l-36.568 34.59.757-.97-60.425-57.17-60.425 57.17.754.97-36.564-34.59-36.573 34.6.759-.98-60.425-57.17-60.425 57.17.751.97-36.561-34.59-36.57 34.59.756-.97-60.425-57.17-60.424 57.17.753.97-36.564-34.59-36.566 34.59.754-.97-60.425-57.17-60.426 57.17.749.97-36.56-34.59-36.566 34.59.754-.97-60.425-57.17-60.424 57.17.751.97L-1 2406.31v-2.09l29.254 27.68 1.5 1.96 2.763 3.57 61.356-58.05 59.347 56.15-.742.96 2.183 1.68 4.971-6.43 30.478-28.81 30.622 28.97 1.494 1.96 2.764 3.57 61.357-58.05 61.355 58.05 1.674-2.16 2.729-3.53 30.478-28.81 30.617 28.97 4.259 5.53 61.356-58.05 59.345 56.15-.772 1 2.183 1.68 5-6.47 30.476-28.81 30.624 28.97 1.492 1.96 2.766 3.57 61.356-58.05 61.357 58.05 4.338-5.61 30.541-28.89 30.624 28.97 1.5 1.96 2.763 3.57 61.356-58.05 61.357 58.05 2.733-3.53 1.667-2.16L960 2402.93l30.624 28.97 1.5 1.96 2.762 3.57 61.36-58.05 61.35 58.05 2.74-3.53 1.66-2.16 30.48-28.81 30.63 28.97 1.49 1.96 2.76 3.57 61.36-58.05 61.35 58.05 4.41-5.69 30.45-28.79.02.02.02-.03 30.61 28.96 4.26 5.53 61.35-58.05 61.36 58.05.95-1.22 3.45-4.47 30.46-28.79.01.02.02-.03 30.61 28.96 4.26 5.53 61.36-58.05 59.34 56.15-.93 1.2-58.41-55.26-60.43 57.17.75.96-36.56-34.58-36.57 34.6zm194.3-2.37l3.51-4.53 30.45-28.79.01.02.03-.03 30.61 28.96 4.25 5.53 61.36-58.05 59.34 56.15-.93 1.2-58.41-55.26-60.43 57.17.76.97-36.57-34.59-36.57 34.59zm195.98-4.53l29.11-27.52v2.09l-35.19 33.3zm-176.26-62.39l14.24-13.47.01.02.03-.03 14.24 13.48-.93 1.21-13.33-12.61-13.33 12.61zm-30.05-38.86l44.23-41.84.07.09.09-.1 44.23 41.86-.93 1.2-43.38-41.04-43.37 41.04zm125.96-63.51h2.2l5.53 5.23-.92 1.21zm-35.57 0h2.21l26.07 24.66-.93 1.21zm-142.31 329.77l-73.44 69.48-.93-1.21 74.37-70.36 74.37 70.36-.94 1.21zm0 134.56l-13.35 12.63-.93-1.21 14.28-13.5 14.27 13.5-.93 1.21zm0-67.28l-43.39 41.05-.93-1.2 44.32-41.94 44.32 41.94-.93 1.2zm0 33.64l-28.37 26.84-.93-1.21 29.3-27.72 29.3 27.72-.94 1.21zm0-134.56l-88.47 83.69-.93-1.21 89.4-84.57 89.39 84.57-.93 1.21zm81.97 55.16l14.24-13.47.01.02.03-.03 14.24 13.48-.93 1.21-13.33-12.61-13.33 12.61zm14.26-78.69l-43.37 41.04-.94-1.21 44.29-41.89.01.01.03-.02 44.29 41.91-.93 1.2zm-29.28 59.26l29.26-27.68.01.01.03-.02 29.27 27.69-.93 1.21-28.36-26.83-28.35 26.83zm-45.08 190.64l74.34-70.33.01.02.03-.02 74.34 70.33-.93 1.21-73.43-69.47-73.42 69.47zm-15.02-19.43l89.36-84.54.01.02.03-.03 89.36 84.55-.92 1.21-88.46-83.68-88.45 83.68zM1212.89 2563.1l-60.42-57.16-60.41 57.16.75.96-36.57-34.6-36.58 34.61.75-.97-1.67-1.59 1.82 1.4 5.18-6.71 30.5-28.82 30.63 28.98 4.26 5.53 61.34-58.04 61.35 58.04 4.4-5.69 30.49-28.82 30.63 28.98 4.26 5.53 61.32-58.01.02.01.02-.02 61.33 58.02 4.4-5.69 30.49-28.82 30.64 28.98 4.25 5.53 61.33-58.01.01.01.02-.02 59.32 56.12-.93 1.2-58.4-55.25-60.41 57.16.74.96-36.57-34.6-36.57 34.6.75-.96-60.41-57.16-60.42 57.16.74.95-36.56-34.59-36.57 34.61zm577.42 0l-1.68-1.59 1.82 1.4 5.19-6.71 30.49-28.82 30.63 28.98 4.26 5.53 59.98-56.75v2.09l-59.05 55.87.75.96-36.57-34.6-36.58 34.61zm-1347.319 0l-1.675-1.59 1.818 1.4 5.192-6.71 30.489-28.82 30.633 28.98 4.26 5.53 61.346-58.04 59.331 56.14-.931 1.2-58.4-55.25-60.415 57.16.749.96-36.573-34.6-36.575 34.61zm384.948 0l-1.675-1.59 1.818 1.4 5.189-6.71 30.492-28.82 30.633 28.98 4.26 5.53L960 2503.85l59.331 56.14-.93 1.2L960 2505.94l-60.414 57.16.749.96-36.573-34.6-36.575 34.61zm-192.474 0l-1.675-1.59 1.818 1.4 5.189-6.71 30.492-28.82 30.633 28.98 4.26 5.53 61.343-58.04 59.334 56.14-.931 1.2-58.4-55.25-60.415 57.16.749.96-36.573-34.6-36.575 34.61zm-384.946 0l-60.413-57.16-60.414 57.16.744.96-36.567-34.6-36.569 34.6.749-.96-1.67-1.58 1.813 1.39 5.19-6.71 30.49-28.82 30.631 28.98 4.26 5.53 61.346-58.04 61.344 58.04 4.4-5.69 30.49-28.82 30.631 28.98 4.26 5.53 61.346-58.04 59.331 56.14-.931 1.2-58.4-55.25-60.414 57.16.744.96-36.567-34.6-36.574 34.61zm1383.141-33.64l-36.57 34.6.74-.96-1.66-1.58 1.8 1.39 5.2-6.71 30.49-28.82 30.63 28.98 4.26 5.53 61.32-58.01.01.01.03-.02 59.32 56.12-.94 1.2-58.4-55.25-60.41 57.16.75.96zM-1 2507.23v-2.09l57.965 54.85-.93 1.2zm1827.13 89.52l-73.44 69.48-.93-1.21 74.37-70.36 74.37 70.36-.93 1.21zm0 134.56l-13.34 12.63-.93-1.21 14.27-13.5 14.27 13.5-.93 1.21zm0-67.28l-43.39 41.05-.93-1.2 44.32-41.94 44.32 41.94-.93 1.2zm-29.3 59.27l29.3-27.72 29.3 27.72-.93 1.21-28.37-26.84-28.37 26.84zm29.3-160.19l-88.46 83.69-.93-1.21 89.39-84.57 89.39 84.57-.93 1.21zm81.97 55.16l12.9-12.2v2.09l-11.96 11.32zm-60.09-77.71l72.99-69.06v2.09l-72.06 68.18zm-15.02-19.43l88.01-83.27v2.09l-87.08 82.39zm45.07 58.29l42.94-40.63v2.09l-42.01 39.74zm15.02 19.42l27.92-26.41v2.09l-26.99 25.53zM960 2653.94l-36.56 34.59 3.988-5.16 2.093-2.71L960 2651.85l30.624 28.97 1.5 1.96 2.762 3.57 61.36-58.05 59.34 56.15-.93 1.2-58.41-55.26-60.428 57.17.751.97zm-223.018 26.8l30.544-28.89 30.624 28.97 1.5 1.96 2.763 3.57 61.356-58.05 59.345 56.15-.932 1.2-58.413-55.26-60.425 57.17.752.97-36.562-34.59-36.565 34.59zm-192.406-.08l30.476-28.81 30.624 28.97 1.492 1.96 2.766 3.57 61.356-58.05 59.345 56.15-.931 1.2-58.414-55.26-60.425 57.17.751.97-36.561-34.59-36.565 34.59zm1185.315-26.72l-36.55 34.58 6.08-7.86 30.45-28.79.01.02.03-.03 30.61 28.96 4.25 5.53 61.36-58.05 59.34 56.15-.93 1.2-58.41-55.26-60.43 57.17.76.97zm-1347.31 0l-36.559 34.58 6.08-7.86 30.478-28.81 30.621 28.97 4.259 5.53 61.356-58.05 59.345 56.15-.931 1.2-58.414-55.26-60.424 57.17.751.97zM-1 2655.23v-2.09l29.254 27.68 1.5 1.96 2.763 3.57 61.356-58.05 59.347 56.15-.932 1.2-58.415-55.26-60.425 57.17.75.97zm191.106-1.29l-36.554 34.58 6.076-7.86 30.478-28.81 30.622 28.97 1.494 1.96 2.764 3.57 61.357-58.05 59.345 56.15-.932 1.2-58.413-55.26-60.426 57.17.748.96zm1154.844 0l-36.56 34.58 6.08-7.86 30.45-28.79.02.02.02-.03 30.61 28.96 4.26 5.53 61.35-58.05 59.35 56.15-.93 1.2-58.42-55.26-60.42 57.17.74.96zm-192.48 0l-36.55 34.58 3.98-5.15 2.09-2.71 30.48-28.81 30.63 28.97 1.49 1.96 2.76 3.57 61.36-58.05 59.35 56.15-.94 1.2-58.41-55.26-60.43 57.17.75.96zm384.95 0l-36.55 34.58 6.07-7.86 30.46-28.79.01.02.02-.03 30.61 28.96 4.26 5.53 61.36-58.05 59.34 56.15-.93 1.2-58.41-55.26-60.43 57.17.75.96zm354.47 26.72l29.11-27.52v2.09l-35.19 33.29zm-258.23 165.01l-73.44 69.48-.93-1.21 74.37-70.36 74.37 70.36-.94 1.21zm0 134.56l-13.35 12.63-.93-1.21 14.28-13.5 14.27 13.5-.93 1.21zm0-67.28l-43.39 41.05-.93-1.2 44.32-41.94 44.32 41.94-.93 1.2zm0 33.64l-28.37 26.84-.93-1.21 29.3-27.72 29.3 27.72-.94 1.21zm0-134.56l-88.47 83.69-.93-1.21 89.4-84.57 89.39 84.57-.93 1.21zm81.97 55.16l14.24-13.47.01.02.03-.03 14.24 13.48-.93 1.21-13.33-12.61-13.33 12.61zm-30.05-38.86l44.23-41.84.07.09.09-.1 44.23 41.86-.93 1.2-43.38-41.04-43.37 41.04zm15.03 19.43l29.2-27.63.07.09.09-.09 29.21 27.63-.93 1.21-28.36-26.83-28.35 26.83zm72.46 163.23l-43.18-40.85-43.17 40.85h-2.21l45.36-42.92.01.02.03-.02 45.36 42.92h-2.2zm-35.56 0l-7.62-7.21-7.61 7.21h-2.21l9.8-9.27.01.01.03-.02 9.8 9.28h-2.2zm71.11 0l-78.73-74.49-78.73 74.49h-2.2l80.91-76.56.01.02.03-.03 80.92 76.57h-2.21zm-595.73-198.97l-60.42-57.16-60.41 57.16.75.96-36.57-34.6-36.58 34.61.75-.97-1.67-1.59 1.82 1.4 5.18-6.71 30.5-28.82 30.63 28.98 4.26 5.53 61.34-58.04 61.35 58.04 4.4-5.69 30.49-28.82 30.63 28.98 4.26 5.53 61.32-58.01.02.01.02-.02 61.33 58.02 4.4-5.69 30.49-28.82 30.64 28.98 4.25 5.53 61.33-58.01.01.01.02-.02 59.32 56.12-.93 1.2-58.4-55.25-60.41 57.16.74.96-36.57-34.6-36.56 34.6.74-.96-60.41-57.16-60.42 57.16.74.95-36.56-34.59-36.57 34.61zm577.42 0l-1.68-1.59 1.82 1.4 5.19-6.71 30.49-28.82 30.63 28.98 4.26 5.53 59.98-56.74v2.08l-59.05 55.87.75.96-36.57-34.6-36.58 34.61zm-1347.319 0l-1.672-1.59 1.815 1.4 5.192-6.71 30.489-28.82 30.633 28.98 4.26 5.53 61.346-58.04 59.331 56.14-.931 1.2-58.4-55.25-60.415 57.16.749.96-36.573-34.6-36.575 34.61zm384.948 0l-1.672-1.59 1.815 1.4 5.189-6.71 30.492-28.82 30.633 28.98 4.26 5.53L960 2752.77l59.331 56.14-.93 1.2L960 2754.86l-60.414 57.16.749.96-36.573-34.6-36.575 34.61zm-192.474 0l-1.672-1.59 1.815 1.4 5.189-6.71 30.492-28.82 30.633 28.98 4.26 5.53 61.343-58.04 59.334 56.14-.931 1.2-58.4-55.25-60.415 57.16.749.96-36.573-34.6-36.575 34.61zm-384.946 0l-1.67-1.58 1.813 1.39 5.191-6.71 30.49-28.82 30.631 28.98 4.26 5.53 61.346-58.04 59.331 56.14-.931 1.2-58.4-55.25-60.414 57.16.743.96-36.566-34.6-36.573 34.61zm1383.141-33.64l-36.57 34.6.74-.96-1.66-1.58 1.8 1.39 5.2-6.71 30.49-28.82 30.63 28.98 4.26 5.53 61.32-58.01.01.01.03-.02 59.32 56.12-.94 1.2-58.4-55.25-60.41 57.16.75.96zM58.046 2812.02l-1.667-1.58 1.81 1.39 5.19-6.71 30.49-28.82 30.631 28.98 4.26 5.53 61.346-58.04 59.333 56.14-.932 1.2-58.4-55.25-60.414 57.16.744.96-36.567-34.6-36.57 34.6zM-1 2756.15v-2.08l57.966 54.84-.932 1.2zm1827.13 89.52l-73.44 69.48-.93-1.21 74.37-70.36 74.37 70.36-.93 1.21zm0 134.56l-13.34 12.63-.93-1.21 14.27-13.5 14.27 13.5-.93 1.21zm0-67.28l-43.39 41.05-.93-1.2 44.32-41.94 44.32 41.94-.93 1.2zm-29.3 59.27l29.3-27.72 29.3 27.72-.93 1.21-28.37-26.84-28.37 26.84zm29.3-160.19l-88.46 83.69-.93-1.21 89.39-84.57 89.39 84.57-.93 1.21zm81.97 55.16l12.9-12.2v2.09l-11.96 11.32zm-60.09-77.71l72.99-69.06v2.09l-72.06 68.18zm-15.02-19.43l88.01-83.27v2.09l-87.08 82.39zm45.07 58.29l42.94-40.63v2.09l-42.01 39.74zm15.02 19.42l27.92-26.41v2.09l-26.99 25.53zm-391.47 88.72l-60.43-57.17-60.42 57.17.75.96-36.56-34.58-36.57 34.59.76-.97-60.43-57.17-60.43 57.17.75.96-36.56-34.58-36.56 34.59.75-.97-60.42-57.17-60.428 57.17.754.97L960 2902.86l-36.568 34.59.757-.97-60.425-57.17-60.425 57.17.754.97-36.564-34.59-36.573 34.6.759-.98-60.425-57.17-60.425 57.17.751.97-36.561-34.59-36.57 34.59.756-.97-60.425-57.17-60.424 57.17.753.97-36.564-34.59-36.566 34.59.754-.97-60.425-57.17-60.426 57.17.749.97-36.56-34.59-36.566 34.59.754-.97-60.425-57.17-60.424 57.17.751.97L-1 2904.15v-2.09l29.254 27.68 1.5 1.96 2.763 3.57 61.356-58.05 59.347 56.15-.742.96 2.183 1.68 4.971-6.43 30.478-28.81 30.622 28.97 1.494 1.96 2.764 3.57 61.357-58.05 61.355 58.05 1.674-2.16 2.729-3.53 30.478-28.81 30.621 28.97 4.259 5.53 61.356-58.05 59.345 56.15-.772 1 2.183 1.68 5-6.47 30.476-28.81 30.624 28.97 1.492 1.96 2.766 3.57 61.356-58.05 61.357 58.05 4.338-5.61 30.541-28.89 30.624 28.97 1.5 1.96 2.763 3.57 61.356-58.05 61.357 58.05 2.733-3.53 1.667-2.16L960 2900.77l30.624 28.97 1.5 1.96 2.762 3.57 61.36-58.05 61.35 58.05 2.74-3.53 1.66-2.16 30.48-28.81 30.63 28.97 1.49 1.96 2.76 3.57 61.36-58.05 61.35 58.05 4.41-5.69 30.45-28.79.02.02.02-.03 30.61 28.96 4.26 5.53 61.35-58.05 61.36 58.05.95-1.22 3.45-4.47 30.46-28.79.01.02.02-.03 30.61 28.96 4.26 5.53 61.36-58.05 59.34 56.15-.93 1.21-58.41-55.27-60.43 57.17.75.96-36.56-34.58-36.57 34.6zm194.3-2.37l3.51-4.53 30.45-28.79.01.02.03-.03 30.61 28.96 4.25 5.53 61.36-58.05 59.34 56.15-.93 1.2-58.41-55.26-60.43 57.17.76.97-36.57-34.59-36.57 34.59zm195.98-4.53l29.11-27.52v2.09l-35.19 33.3zm-14.9 81.41l44.01-41.65v2.09l-41.81 39.56h-2.2zm35.55 0l8.46-8v2.08l-6.25 5.92h-2.21zm-71.11 0l79.57-75.29v2.09l-77.36 73.2h-2.21z" transform="translate(0 -2266.97)" fill="#ededed" fill-rule="evenodd"/></svg>