<svg xmlns="http://www.w3.org/2000/svg" width="17" height="17" viewBox="0 0 17 19"><path d="M16.117 11.125c.11-.52.176-1.07.176-1.625 0-4.21-3.484-7.617-7.79-7.617a8.35 8.35 0 00-1.663.172 4.277 4.277 0 00-2.59-.868C1.906 1.188 0 3.051 0 5.345c0 .953.332 1.828.883 2.531-.11.52-.176 1.07-.176 1.625 0 4.21 3.484 7.617 7.79 7.617a8.35 8.35 0 001.663-.172 4.29 4.29 0 002.586.864c2.344 0 4.25-1.864 4.25-4.157a4.06 4.06 0 00-.879-2.527zM8.73 14.52c-2.488 0-4.57-1.082-4.57-2.41 0-.594.34-1.137 1.117-1.137 1.184 0 1.297 1.668 3.344 1.668.977 0 1.606-.426 1.606-.977 0-.695-.606-.8-1.594-1.039-2.371-.57-4.469-.816-4.469-3.238 0-2.196 2.223-3.008 4.137-3.008 2.094 0 4.207.812 4.207 2.055 0 .628-.434 1.18-1.153 1.18-1.07 0-1.105-1.243-2.843-1.243-.977 0-1.594.262-1.594.836 0 .734.789.809 2.621 1.223 1.57.347 3.441.996 3.441 2.883 0 2.19-2.164 3.207-4.25 3.207zm0 0" id="surface1"/></svg>