<svg xmlns="http://www.w3.org/2000/svg" width="17" height="17"><path d="M8.5.266C3.805.266 0 3.953 0 8.5c0 4.547 3.805 8.234 8.5 8.234S17 13.047 17 8.5C17 3.953 13.195.266 8.5.266zm3.941 5.601c-.129 1.301-.683 4.461-.964 5.918-.118.617-.356.824-.582.844-.493.047-.868-.316-1.344-.617-.75-.477-1.172-.774-1.899-1.235-.84-.535-.297-.832.184-1.312.125-.125 2.3-2.043 2.34-2.215.008-.023.011-.105-.04-.148-.046-.043-.12-.028-.175-.016-.074.016-1.27.781-3.586 2.297-.336.226-.645.336-.922.328-.3-.004-.887-.164-1.32-.3-.531-.169-.953-.259-.918-.544.02-.148.23-.3.633-.453a370.448 370.448 0 014.957-2.07c2.36-.95 2.851-1.117 3.172-1.121a.59.59 0 01.328.093c.066.059.11.137.12.227.016.105.024.215.016.324zm0 0" id="surface1"/></svg>