<svg xmlns="http://www.w3.org/2000/svg" width="17" height="17"><path d="M14.742 1.656C14.32 1.27 12.613.031 8.81.012c0 0-4.485-.266-6.672 1.738C.922 2.965.497 4.75.449 6.957c-.047 2.207-.105 6.344 3.883 7.465h.004l-.004 1.715s-.027.695.434.832c.55.176.875-.356 1.402-.922.289-.313.687-.77.992-1.117 2.727.226 4.824-.297 5.063-.375.55-.176 3.668-.575 4.172-4.715.527-4.27-.25-6.965-1.653-8.184zm.461 7.875c-.43 3.453-2.953 3.672-3.418 3.82-.2.063-2.043.52-4.36.372 0 0-1.726 2.082-2.26 2.625-.177.175-.372.156-.368-.192 0-.23.016-2.843.016-2.843-.004 0-.004 0 0 0-3.383-.938-3.184-4.461-3.145-6.305.035-1.84.383-3.352 1.414-4.367C4.93.965 8.738 1.21 8.738 1.21c3.219.016 4.758.984 5.117 1.309 1.188 1.015 1.79 3.445 1.348 7.011zM10.59 6.848c.012.285-.418.304-.43.02-.035-.731-.379-1.087-1.082-1.126-.285-.02-.258-.445.024-.43.925.051 1.441.583 1.488 1.536zm.672.375c.035-1.41-.848-2.512-2.516-2.633-.281-.02-.254-.45.031-.43 1.926.14 2.95 1.465 2.914 3.07-.004.286-.437.274-.43-.007zm1.562.445c.004.285-.43.289-.43.004-.019-2.707-1.824-4.184-4.011-4.2-.281-.003-.281-.429 0-.429 2.449.02 4.418 1.707 4.441 4.625zm-.375 3.254v.008c-.36.633-1.031 1.328-1.722 1.105l-.004-.008c-.703-.195-2.352-1.047-3.395-1.879a8.397 8.397 0 01-1.406-1.406c-.344-.43-.688-.937-1.024-1.547-.707-1.277-.863-1.851-.863-1.851-.223-.688.469-1.36 1.106-1.719h.004c.308-.16.597-.105.796.129 0 0 .41.492.586.734.168.227.391.59.504.793.203.36.078.73-.12.883l-.4.316c-.202.165-.175.465-.175.465s.59 2.235 2.797 2.801c0 0 .305.027.465-.176l.32-.398c.152-.2.52-.328.883-.125.488.277 1.11.703 1.52 1.094.234.187.284.476.128.78zm0 0" id="surface1"/></svg>