<svg width="209" height="51" fill="none" xmlns="http://www.w3.org/2000/svg"><path d="M6.24 37L.032 19.784h4.704L9.888 34.6h-2.24l5.376-14.816h4.224L22.464 34.6h-2.24l5.312-14.816h4.416L23.712 37H18.88l-4.576-12.704h1.472L11.04 37h-4.8zm34.108.256c-1.963 0-3.69-.384-5.184-1.152-1.472-.768-2.613-1.813-3.424-3.136-.81-1.344-1.216-2.87-1.216-4.576 0-1.728.395-3.253 1.184-4.576a8.47 8.47 0 013.296-3.136c1.387-.768 2.955-1.152 4.704-1.152 1.685 0 3.2.363 4.544 1.088a7.861 7.861 0 013.232 3.072c.79 1.323 1.184 2.912 1.184 4.768 0 .192-.01.416-.032.672a72.78 72.78 0 01-.064.672H34.588v-2.912h11.36l-1.92.864c0-.896-.181-1.675-.544-2.336a3.86 3.86 0 00-1.504-1.536c-.64-.384-1.387-.576-2.24-.576-.853 0-1.61.192-2.272.576a3.81 3.81 0 00-1.504 1.568c-.363.661-.544 1.45-.544 2.368v.768c0 .939.203 1.77.608 2.496a4.331 4.331 0 001.76 1.632c.768.363 1.664.544 2.688.544.917 0 1.717-.139 2.4-.416a5.837 5.837 0 001.92-1.248l2.656 2.88c-.79.896-1.781 1.59-2.976 2.08-1.195.47-2.57.704-4.128.704zm21.82 0c-1.515 0-2.816-.32-3.904-.96-1.089-.64-1.92-1.61-2.497-2.912-.576-1.323-.864-2.987-.864-4.992 0-2.027.3-3.69.897-4.992.618-1.301 1.472-2.272 2.56-2.912 1.087-.64 2.357-.96 3.807-.96 1.622 0 3.073.363 4.352 1.088a7.876 7.876 0 013.072 3.072c.769 1.323 1.153 2.89 1.153 4.704 0 1.792-.385 3.35-1.153 4.672a8.103 8.103 0 01-3.072 3.104c-1.28.725-2.73 1.088-4.352 1.088zM51.991 37V13.256h4.992v10.016l-.32 5.088.096 5.12V37h-4.768zm9.312-3.84c.831 0 1.567-.192 2.207-.576a4.127 4.127 0 001.568-1.632c.406-.725.609-1.579.609-2.56 0-1.003-.203-1.856-.609-2.56a4.127 4.127 0 00-1.567-1.632c-.64-.384-1.377-.576-2.209-.576-.831 0-1.578.192-2.24.576a4.127 4.127 0 00-1.568 1.632c-.383.704-.575 1.557-.575 2.56 0 .981.191 1.835.575 2.56a4.127 4.127 0 001.569 1.632c.66.384 1.407.576 2.24.576zm22.957 4.096c-1.514 0-2.816-.32-3.904-.96-1.088-.64-1.92-1.61-2.496-2.912-.576-1.323-.864-2.987-.864-4.992 0-2.027.299-3.69.896-4.992.619-1.301 1.472-2.272 2.56-2.912 1.088-.64 2.358-.96 3.808-.96 1.622 0 3.072.363 4.352 1.088a7.876 7.876 0 013.072 3.072c.768 1.323 1.152 2.89 1.152 4.704 0 1.792-.384 3.35-1.152 4.672a8.103 8.103 0 01-3.072 3.104c-1.28.725-2.73 1.088-4.352 1.088zM74.085 37V13.256h4.992v10.016l-.32 5.088.096 5.12V37h-4.768zm9.312-3.84c.832 0 1.568-.192 2.208-.576a4.127 4.127 0 001.568-1.632c.406-.725.608-1.579.608-2.56 0-1.003-.202-1.856-.608-2.56a4.127 4.127 0 00-1.568-1.632c-.64-.384-1.376-.576-2.208-.576-.832 0-1.578.192-2.24.576a4.127 4.127 0 00-1.568 1.632c-.384.704-.576 1.557-.576 2.56 0 .981.192 1.835.576 2.56a4.127 4.127 0 001.568 1.632c.662.384 1.408.576 2.24.576zM96.18 37V13.256h4.992V37H96.18zm20.185 0v-3.36l-.32-.736v-6.016c0-1.067-.331-1.899-.992-2.496-.64-.597-1.632-.896-2.976-.896-.917 0-1.824.15-2.72.448-.875.277-1.621.661-2.24 1.152l-1.792-3.488c.939-.661 2.069-1.173 3.392-1.536a15.183 15.183 0 014.032-.544c2.624 0 4.661.619 6.112 1.856 1.451 1.237 2.176 3.168 2.176 5.792V37h-4.672zm-5.248.256c-1.344 0-2.496-.224-3.456-.672-.96-.47-1.696-1.099-2.208-1.888a4.778 4.778 0 01-.768-2.656c0-1.024.245-1.92.736-2.688.512-.768 1.312-1.365 2.4-1.792 1.088-.448 2.507-.672 4.256-.672h4.576V29.8h-4.032c-1.173 0-1.984.192-2.432.576-.427.384-.64.864-.64 1.44 0 .64.245 1.152.736 1.536.512.363 1.205.544 2.08.544.832 0 1.579-.192 2.24-.576.661-.405 1.141-.992 1.44-1.76l.768 2.304c-.363 1.11-1.024 1.952-1.984 2.528-.96.576-2.197.864-3.712.864zm22.883 0c-1.856 0-3.509-.373-4.96-1.12-1.451-.768-2.592-1.824-3.424-3.168-.811-1.344-1.216-2.87-1.216-4.576 0-1.728.405-3.253 1.216-4.576.832-1.344 1.973-2.39 3.424-3.136 1.451-.768 3.104-1.152 4.96-1.152 1.813 0 3.392.384 4.736 1.152a6.843 6.843 0 012.976 3.232l-3.872 2.08c-.448-.81-1.013-1.408-1.696-1.792a4.256 4.256 0 00-2.176-.576c-.853 0-1.621.192-2.304.576a4.278 4.278 0 00-1.632 1.632c-.384.704-.576 1.557-.576 2.56 0 1.003.192 1.856.576 2.56a4.278 4.278 0 001.632 1.632c.683.384 1.451.576 2.304.576a4.45 4.45 0 002.176-.544c.683-.384 1.248-.992 1.696-1.824l3.872 2.112c-.64 1.387-1.632 2.464-2.976 3.232-1.344.747-2.923 1.12-4.736 1.12zm14.621-3.776l.128-6.08 8.032-7.616h5.952l-7.712 7.84-2.592 2.112-3.808 3.744zM144.492 37V13.256h4.992V37h-4.992zm12.832 0l-5.824-7.232 3.136-3.872L163.372 37h-6.048zm26.688-3.051c-.428 0-.842-.16-1.161-.448L174 25.498l9.342-8.446a1.731 1.731 0 012.445.17 1.798 1.798 0 01-.122 2.49l-6.4 5.786 5.908 5.34a1.805 1.805 0 01.475 1.962c-.126.338-.35.628-.642.833a1.732 1.732 0 01-.994.315zm15.646-.004L209 25.5l-8.851-8.001a1.728 1.728 0 00-2.468.148 1.8 1.8 0 00.146 2.511l5.908 5.342-6.4 5.785a1.8 1.8 0 00-.147 2.512 1.73 1.73 0 002.47.15zm-8.182 2.52l3.498-21.346a1.799 1.799 0 00-.28-1.354 1.752 1.752 0 00-1.149-.74 1.719 1.719 0 00-1.324.32 1.81 1.81 0 00-.697 1.189l-3.498 21.347a1.799 1.799 0 00.28 1.354 1.752 1.752 0 001.149.74 1.719 1.719 0 001.324-.32 1.81 1.81 0 00.697-1.189z" fill="#fff"/></svg>