<svg width="151" height="38" fill="none" xmlns="http://www.w3.org/2000/svg"><path d="M4.68 28L.024 15.088h3.528L7.416 26.2h-1.68l4.032-11.112h3.168L16.848 26.2h-1.68l3.984-11.112h3.312L17.784 28H14.16l-3.432-9.528h1.104L8.28 28h-3.6zm25.581.192c-1.472 0-2.768-.288-3.888-.864-1.104-.576-1.96-1.36-2.568-2.352-.608-1.008-.912-2.152-.912-3.432 0-1.296.296-2.44.888-3.432a6.353 6.353 0 012.472-2.352c1.04-.576 2.216-.864 3.528-.864 1.264 0 2.4.272 3.408.816a5.896 5.896 0 012.424 2.304c.592.992.888 2.184.888 3.576 0 .144-.008.312-.024.504l-.048.504H25.941v-2.184h8.52l-1.44.648c0-.672-.136-1.256-.408-1.752a2.895 2.895 0 00-1.128-1.152c-.48-.288-1.04-.432-1.68-.432-.64 0-1.208.144-1.704.432-.48.272-.856.664-1.128 1.176-.272.496-.408 1.088-.408 1.776v.576c0 .704.152 1.328.456 1.872.32.528.76.936 1.32 1.224.576.272 1.248.408 2.016.408.688 0 1.288-.104 1.8-.312a4.378 4.378 0 001.44-.936l1.992 2.16c-.592.672-1.336 1.192-2.232 1.56-.896.352-1.928.528-3.096.528zm16.365 0c-1.136 0-2.112-.24-2.928-.72-.816-.48-1.44-1.208-1.872-2.184-.432-.992-.648-2.24-.648-3.744 0-1.52.224-2.768.672-3.744.464-.976 1.104-1.704 1.92-2.184.816-.48 1.768-.72 2.856-.72 1.216 0 2.304.272 3.264.816a5.907 5.907 0 012.304 2.304c.576.992.864 2.168.864 3.528 0 1.344-.288 2.512-.864 3.504a6.077 6.077 0 01-2.304 2.328c-.96.544-2.048.816-3.264.816zM38.994 28V10.192h3.744v7.512l-.24 3.816.072 3.84V28h-3.576zm6.984-2.88c.624 0 1.176-.144 1.656-.432a3.095 3.095 0 001.176-1.224c.304-.544.456-1.184.456-1.92 0-.752-.152-1.392-.456-1.92a3.095 3.095 0 00-1.176-1.224c-.48-.288-1.032-.432-1.656-.432-.624 0-1.184.144-1.68.432a3.095 3.095 0 00-1.176 1.224c-.288.528-.432 1.168-.432 1.92 0 .736.144 1.376.432 1.92.288.528.68.936 1.176 1.224a3.284 3.284 0 001.68.432zm17.218 3.072c-1.136 0-2.112-.24-2.928-.72-.816-.48-1.44-1.208-1.872-2.184-.432-.992-.648-2.24-.648-3.744 0-1.52.224-2.768.672-3.744.464-.976 1.104-1.704 1.92-2.184.816-.48 1.768-.72 2.856-.72 1.216 0 2.304.272 3.264.816a5.907 5.907 0 012.304 2.304c.576.992.864 2.168.864 3.528 0 1.344-.288 2.512-.864 3.504a6.077 6.077 0 01-2.304 2.328c-.96.544-2.048.816-3.264.816zM55.564 28V10.192h3.744v7.512l-.24 3.816.072 3.84V28h-3.576zm6.984-2.88c.624 0 1.176-.144 1.656-.432a3.095 3.095 0 001.176-1.224c.304-.544.456-1.184.456-1.92 0-.752-.152-1.392-.456-1.92a3.095 3.095 0 00-1.176-1.224c-.48-.288-1.032-.432-1.656-.432-.624 0-1.184.144-1.68.432a3.095 3.095 0 00-1.176 1.224c-.288.528-.432 1.168-.432 1.92 0 .736.144 1.376.432 1.92.288.528.68.936 1.176 1.224a3.284 3.284 0 001.68.432zM72.134 28V10.192h3.744V28h-3.744zm15.139 0v-2.52l-.24-.552v-4.512c0-.8-.248-1.424-.744-1.872-.48-.448-1.224-.672-2.232-.672-.688 0-1.368.112-2.04.336-.656.208-1.216.496-1.68.864l-1.344-2.616c.704-.496 1.552-.88 2.544-1.152.992-.272 2-.408 3.024-.408 1.968 0 3.496.464 4.584 1.392 1.088.928 1.632 2.376 1.632 4.344V28h-3.504zm-3.936.192c-1.008 0-1.872-.168-2.592-.504-.72-.352-1.272-.824-1.656-1.416a3.582 3.582 0 01-.576-1.992c0-.768.184-1.44.552-2.016.384-.576.984-1.024 1.8-1.344.816-.336 1.88-.504 3.192-.504h3.432V22.6h-3.024c-.88 0-1.488.144-1.824.432-.32.288-.48.648-.48 1.08 0 .48.184.864.552 1.152.384.272.904.408 1.56.408.624 0 1.184-.144 1.68-.432.496-.304.856-.744 1.08-1.32l.576 1.728c-.272.832-.768 1.464-1.488 1.896-.72.432-1.648.648-2.784.648zm17.162 0c-1.392 0-2.632-.28-3.72-.84-1.088-.576-1.944-1.368-2.568-2.376-.608-1.008-.912-2.152-.912-3.432 0-1.296.304-2.44.912-3.432a6.4 6.4 0 012.568-2.352c1.088-.576 2.328-.864 3.72-.864 1.36 0 2.544.288 3.552.864a5.132 5.132 0 012.232 2.424l-2.904 1.56c-.336-.608-.76-1.056-1.272-1.344a3.192 3.192 0 00-1.632-.432c-.64 0-1.216.144-1.728.432-.512.288-.92.696-1.224 1.224-.288.528-.432 1.168-.432 1.92s.144 1.392.432 1.92c.304.528.712.936 1.224 1.224a3.463 3.463 0 001.728.432c.592 0 1.136-.136 1.632-.408.512-.288.936-.744 1.272-1.368l2.904 1.584a5.282 5.282 0 01-2.232 2.424c-1.008.56-2.192.84-3.552.84zm10.966-2.832l.096-4.56 6.024-5.712h4.464l-5.784 5.88-1.944 1.584-2.856 2.808zM108.369 28V10.192h3.744V28h-3.744zm9.624 0l-4.368-5.424 2.352-2.904L122.529 28h-4.536zm16.586-2.593c-.281 0-.553-.102-.763-.287L128 20l6.139-5.406a1.156 1.156 0 011.607.109 1.131 1.131 0 01-.08 1.593l-4.206 3.703 3.883 3.418c.174.153.297.356.353.58.056.224.041.46-.042.676a1.156 1.156 0 01-1.075.734zm10.282-.002L151 19.999l-5.816-5.12a1.156 1.156 0 00-1.623.095 1.133 1.133 0 00.096 1.607l3.883 3.418-4.206 3.703a1.134 1.134 0 00-.096 1.607 1.157 1.157 0 001.623.096zm-5.377 1.613l2.299-13.662a1.127 1.127 0 00-.184-.866 1.135 1.135 0 00-.755-.475 1.16 1.16 0 00-1.177.54 1.14 1.14 0 00-.151.427l-2.299 13.662a1.127 1.127 0 00.184.866 1.135 1.135 0 00.755.474 1.16 1.16 0 001.177-.54c.078-.13.13-.275.151-.426z" fill="#fff"/></svg>