<svg xmlns="http://www.w3.org/2000/svg" width="126" height="53"><path d="M122.52 51.26a1.74 1.74 0 111.74 1.74 1.741 1.741 0 01-1.74-1.74zm-13.71 0a1.74 1.74 0 111.74 1.74 1.741 1.741 0 01-1.74-1.74zm-13.49 0A1.74 1.74 0 1197.06 53a1.741 1.741 0 01-1.74-1.74zm-13.71 0A1.74 1.74 0 1183.35 53a1.741 1.741 0 01-1.74-1.74zm-13.5 0A1.745 1.745 0 1169.85 53a1.741 1.741 0 01-1.74-1.74zm-13.71 0A1.745 1.745 0 1156.14 53a1.741 1.741 0 01-1.74-1.74zm-13.49 0A1.74 1.74 0 1142.65 53a1.741 1.741 0 01-1.74-1.74zm-13.71 0A1.74 1.74 0 1128.94 53a1.741 1.741 0 01-1.74-1.74zm-13.49 0A1.74 1.74 0 1115.45 53a1.741 1.741 0 01-1.74-1.74zM0 51.26A1.74 1.74 0 111.74 53 1.741 1.741 0 010 51.26zm122.52-16.51a1.74 1.74 0 111.74 1.74 1.733 1.733 0 01-1.74-1.74zm-13.71 0a1.74 1.74 0 111.74 1.74 1.733 1.733 0 01-1.74-1.74zm-13.49 0a1.74 1.74 0 111.74 1.74 1.733 1.733 0 01-1.74-1.74zm-13.71 0a1.74 1.74 0 111.74 1.74 1.733 1.733 0 01-1.74-1.74zm-13.5 0a1.745 1.745 0 111.74 1.74 1.733 1.733 0 01-1.74-1.74zm-13.71 0a1.745 1.745 0 111.74 1.74 1.733 1.733 0 01-1.74-1.74zm-13.49 0a1.74 1.74 0 111.74 1.74 1.733 1.733 0 01-1.74-1.74zm-13.71 0a1.74 1.74 0 111.74 1.74 1.733 1.733 0 01-1.74-1.74zm-13.49 0a1.74 1.74 0 111.74 1.74 1.733 1.733 0 01-1.74-1.74zM0 34.75a1.74 1.74 0 111.74 1.74A1.733 1.733 0 010 34.75zm122.52-16.5a1.74 1.74 0 111.74 1.73 1.741 1.741 0 01-1.74-1.73zm-13.71 0a1.74 1.74 0 111.74 1.73 1.741 1.741 0 01-1.74-1.73zm-13.49 0a1.74 1.74 0 111.74 1.73 1.741 1.741 0 01-1.74-1.73zm-13.71 0a1.74 1.74 0 111.74 1.73 1.741 1.741 0 01-1.74-1.73zm-13.5 0a1.745 1.745 0 111.74 1.73 1.741 1.741 0 01-1.74-1.73zm-13.71 0a1.745 1.745 0 111.74 1.73 1.741 1.741 0 01-1.74-1.73zm-13.49 0a1.74 1.74 0 111.74 1.73 1.741 1.741 0 01-1.74-1.73zm-13.71 0a1.74 1.74 0 111.74 1.73 1.741 1.741 0 01-1.74-1.73zm-13.49 0a1.74 1.74 0 111.74 1.73 1.741 1.741 0 01-1.74-1.73zM0 18.25a1.74 1.74 0 111.74 1.73A1.741 1.741 0 010 18.25zM122.52 1.74a1.74 1.74 0 111.74 1.74 1.741 1.741 0 01-1.74-1.74zm-13.71 0a1.74 1.74 0 111.74 1.74 1.741 1.741 0 01-1.74-1.74zm-13.49 0a1.74 1.74 0 111.74 1.74 1.741 1.741 0 01-1.74-1.74zm-13.71 0a1.74 1.74 0 111.74 1.74 1.741 1.741 0 01-1.74-1.74zm-13.5 0a1.745 1.745 0 111.74 1.74 1.741 1.741 0 01-1.74-1.74zm-13.71 0a1.745 1.745 0 111.74 1.74 1.741 1.741 0 01-1.74-1.74zm-13.49 0a1.74 1.74 0 111.74 1.74 1.741 1.741 0 01-1.74-1.74zm-13.71 0a1.74 1.74 0 111.74 1.74 1.741 1.741 0 01-1.74-1.74zm-13.49 0a1.74 1.74 0 111.74 1.74 1.741 1.741 0 01-1.74-1.74zM0 1.74a1.74 1.74 0 111.74 1.74A1.741 1.741 0 010 1.74z" fill="#3e2173" fill-rule="evenodd"/></svg>